999
dxfrw 0.6.3
  0
SECTION
  2
HEADER
  9
$ACADVER
  1
AC1021
  9
$DWGCODEPAGE
  3
ANSI_1252
  9
$INSBASE
 10
0
 20
0
 30
0
  9
$EXTMIN
 10
0.8500000000000005
 20
0.3338077573453397
 30
0
  9
$EXTMAX
 10
24.55
 20
13
 30
0
  9
$LIMMIN
 10
0
 20
0
  9
$LIMMAX
 10
420
 20
297
  9
$ORTHOMODE
 70
    0
  9
$REGENMODE
 70
    1
  9
$FILLMODE
 70
    1
  9
$QTEXTMODE
 70
    0
  9
$MIRRTEXT
 70
    0
  9
$LTSCALE
 40
1
  9
$ATTMODE
 70
    0
  9
$TEXTSIZE
 40
2.5
  9
$TRACEWID
 40
15.68
  9
$TEXTSTYLE
  7
STANDARD
  9
$CLAYER
  8
geometry
  9
$CELTYPE
  6
BYLAYER
  9
$CECOLOR
 62
  256
  9
$CELTSCALE
 40
1
  9
$DISPSILH
 70
    0
  9
$DIMSCALE
 40
1
  9
$DIMASZ
 40
0.5
  9
$DIMEXO
 40
0.625
  9
$DIMDLI
 40
3.75
  9
$DIMRND
 40
0
  9
$DIMDLE
 40
0
  9
$DIMEXE
 40
1.25
  9
$DIMTP
 40
0
  9
$DIMTM
 40
0
  9
$DIMTXT
 40
0.25
  9
$DIMCEN
 40
2.5
  9
$DIMTSZ
 40
0
  9
$DIMTOL
 70
    0
  9
$DIMLIM
 70
    0
  9
$DIMTIH
 70
    0
  9
$DIMTOH
 70
    0
  9
$DIMSE1
 70
    0
  9
$DIMSE2
 70
    0
  9
$DIMTAD
 70
    1
  9
$DIMZIN
 70
    1
  9
$DIMBLK
  1

  9
$DIMASO
 70
    1
  9
$DIMSHO
 70
    1
  9
$DIMPOST
  1

  9
$DIMAPOST
  1

  9
$DIMALT
 70
    0
  9
$DIMALTD
 70
    3
  9
$DIMALTF
 40
0.03937
  9
$DIMLFAC
 40
1
  9
$DIMTOFL
 70
    1
  9
$DIMTVP
 40
0
  9
$DIMTIX
 70
    0
  9
$DIMSOXD
 70
    0
  9
$DIMSAH
 70
    0
  9
$DIMBLK1
  1

  9
$DIMBLK2
  1

  9
$DIMSTYLE
  2
STANDARD
  9
$DIMCLRD
 70
    0
  9
$DIMCLRE
 70
    0
  9
$DIMCLRT
 70
    0
  9
$DIMTFAC
 40
1
  9
$DIMGAP
 40
0.625
  9
$DIMJUST
 70
    0
  9
$DIMSD1
 70
    0
  9
$DIMSD2
 70
    0
  9
$DIMTOLJ
 70
    0
  9
$DIMTZIN
 70
    8
  9
$DIMALTZ
 70
    0
  9
$DIMALTTZ
 70
    0
  9
$DIMUPT
 70
    0
  9
$DIMDEC
 70
    3
  9
$DIMTDEC
 70
    2
  9
$DIMALTU
 70
    2
  9
$DIMALTTD
 70
    3
  9
$DIMTXSTY
  7
standard
  9
$DIMAUNIT
 70
    0
  9
$DIMADEC
 70
    2
  9
$DIMALTRND
 40
0
  9
$DIMAZIN
 70
    0
  9
$DIMDSEP
 70
    0
  9
$DIMATFIT
 70
    3
  9
$DIMFRAC
 70
    0
  9
$DIMLDRBLK
  1
STANDARD
  9
$DIMLUNIT
 70
    2
  9
$DIMLWD
 70
   -2
  9
$DIMLWE
 70
   -2
  9
$DIMTMOVE
 70
    0
  9
$DIMFXL
 40
1
  9
$DIMFXLON
 70
    0
  9
$DIMJOGANG
 40
0.7854
  9
$DIMTFILL
 70
    0
  9
$DIMTFILLCLR
 70
    0
  9
$DIMARCSYM
 70
    0
  9
$DIMLTYPE
  6

  9
$DIMLTEX1
  6

  9
$DIMLTEX2
  6

  9
$LUNITS
 70
    2
  9
$LUPREC
 70
    4
  9
$SKETCHINC
 40
1
  9
$FILLETRAD
 40
0
  9
$AUNITS
 70
    0
  9
$AUPREC
 70
    2
  9
$MENU
  1
.
  9
$ELEVATION
 40
0
  9
$PELEVATION
 40
0
  9
$THICKNESS
 40
0
  9
$LIMCHECK
 70
    0
  9
$CHAMFERA
 40
0
  9
$CHAMFERB
 40
0
  9
$CHAMFERC
 40
0
  9
$CHAMFERD
 40
0
  9
$SKPOLY
 70
    0
  9
$USRTIMER
 70
    1
  9
$ANGBASE
 50
0
  9
$ANGDIR
 70
    0
  9
$PDMODE
 70
   34
  9
$PDSIZE
 40
0
  9
$PLINEWID
 40
0
  9
$SPLFRAME
 70
    0
  9
$SPLINETYPE
 70
    2
  9
$SPLINESEGS
 70
    8
  9
$HANDSEED
  5
20000
  9
$SURFTAB1
 70
    6
  9
$SURFTAB2
 70
    6
  9
$SURFTYPE
 70
    6
  9
$SURFU
 70
    6
  9
$SURFV
 70
    6
  9
$UCSBASE
  2

  9
$UCSNAME
  2

  9
$UCSORG
 10
0
 20
0
 30
0
  9
$UCSXDIR
 10
1
 20
0
 30
0
  9
$UCSYDIR
 10
0
 20
1
 30
0
  9
$UCSORTHOREF
  2

  9
$UCSORTHOVIEW
 70
    0
  9
$UCSORGTOP
 10
0
 20
0
 30
0
  9
$UCSORGBOTTOM
 10
0
 20
0
 30
0
  9
$UCSORGLEFT
 10
0
 20
0
 30
0
  9
$UCSORGRIGHT
 10
0
 20
0
 30
0
  9
$UCSORGFRONT
 10
0
 20
0
 30
0
  9
$UCSORGBACK
 10
0
 20
0
 30
0
  9
$PUCSBASE
  2

  9
$PUCSNAME
  2

  9
$PUCSORG
 10
0
 20
0
 30
0
  9
$PUCSXDIR
 10
1
 20
0
 30
0
  9
$PUCSYDIR
 10
0
 20
1
 30
0
  9
$PUCSORTHOREF
  2

  9
$PUCSORTHOVIEW
 70
    0
  9
$PUCSORGTOP
 10
0
 20
0
 30
0
  9
$PUCSORGBOTTOM
 10
0
 20
0
 30
0
  9
$PUCSORGLEFT
 10
0
 20
0
 30
0
  9
$PUCSORGRIGHT
 10
0
 20
0
 30
0
  9
$PUCSORGFRONT
 10
0
 20
0
 30
0
  9
$PUCSORGBACK
 10
0
 20
0
 30
0
  9
$USERI1
 70
    0
  9
$USERI2
 70
    0
  9
$USERI3
 70
    0
  9
$USERI4
 70
    0
  9
$USERI5
 70
    0
  9
$USERR1
 40
0
  9
$USERR2
 40
0
  9
$USERR3
 40
0
  9
$USERR4
 40
0
  9
$USERR5
 40
0
  9
$WORLDVIEW
 70
    1
  9
$SHADEDGE
 70
    3
  9
$SHADEDIF
 70
   70
  9
$TILEMODE
 70
    1
  9
$MAXACTVP
 70
   64
  9
$PINSBASE
 10
0.1329113924050631
 20
1.432530405105939
 30
0
  9
$PLIMCHECK
 70
    0
  9
$PEXTMIN
 10
0
 20
0
 30
0
  9
$PEXTMAX
 10
0
 20
0
 30
0
  9
$GRIDMODE
 70
    1
  9
$SNAPSTYLE
 70
    0
  9
$GRIDUNIT
 10
0
 20
0
  9
$PLIMMIN
 10
0
 20
0
  9
$PLIMMAX
 10
11
 20
8.5
  9
$UNITMODE
 70
    0
  9
$VISRETAIN
 70
    1
  9
$PLINEGEN
 70
    0
  9
$PSLTSCALE
 70
    1
  9
$TREEDEPTH
 70
 3020
  9
$CMLSTYLE
  2
Standard
  9
$CMLJUST
 70
    0
  9
$CMLSCALE
 40
20
  9
$PROXYGRAPHICS
 70
    1
  9
$MEASUREMENT
 70
    1
  9
$CELWEIGHT
370
   -1
  9
$ENDCAPS
280
    0
  9
$JOINSTYLE
280
    0
  9
$LWDISPLAY
290
    0
  9
$INSUNITS
 70
    1
  9
$HYPERLINKBASE
  1

  9
$STYLESHEET
  1

  9
$XEDIT
290
    1
  9
$CEPSNTYPE
380
    0
  9
$PSTYLEMODE
290
    1
  9
$EXTNAMES
290
    1
  9
$PSVPSCALE
 40
0.4226060424211945
  9
$OLESTARTUP
290
    0
  9
$SORTENTS
280
  127
  9
$INDEXCTL
280
    0
  9
$HIDETEXT
280
    1
  9
$XCLIPFRAME
290
    0
  9
$HALOGAP
280
    0
  9
$OBSCOLOR
 70
  257
  9
$OBSLTYPE
280
    0
  9
$INTERSECTIONDISPLAY
280
    0
  9
$INTERSECTIONCOLOR
 70
  257
  9
$DIMASSOC
280
    1
  9
$PROJECTNAME
  1

  9
$CAMERADISPLAY
290
    0
  9
$LENSLENGTH
 40
50
  9
$CAMERAHEIGHT
 40
0
  9
$STEPSPERSEC
 40
2
  9
$STEPSIZE
 40
50
  9
$3DDWFPREC
 40
2
  9
$PSOLWIDTH
 40
5
  9
$PSOLHEIGHT
 40
80
  9
$LOFTANG1
 40
1.570796326794897
  9
$LOFTANG2
 40
1.570796326794897
  9
$LOFTMAG1
 40
0
  9
$LOFTMAG2
 40
0
  9
$LOFTPARAM
 70
    7
  9
$LOFTNORMALS
280
    1
  9
$LATITUDE
 40
1
  9
$LONGITUDE
 40
1
  9
$NORTHDIRECTION
 40
0
  9
$TIMEZONE
 70
-8000
  9
$LIGHTGLYPHDISPLAY
280
    1
  9
$TILEMODELIGHTSYNCH
280
    1
  9
$SOLIDHIST
280
    1
  9
$SHOWHIST
280
    1
  9
$DWFFRAME
280
    2
  9
$DGNFRAME
280
    0
  9
$REALWORLDSCALE
290
    1
  9
$INTERFERECOLOR
 62
    1
  9
$CSHADOW
280
    0
  9
$SHADOWPLANELOCATION
 40
0
  0
ENDSEC
  0
SECTION
  2
CLASSES
  0
ENDSEC
  0
SECTION
  2
TABLES
  0
TABLE
  2
VPORT
  5
8
330
0
100
AcDbSymbolTable
 70
    1
  0
VPORT
  5
31
330
2
100
AcDbSymbolTableRecord
100
AcDbViewportTableRecord
  2
*ACTIVE
 70
    0
 10
0
 20
0
 11
1
 21
1
 12
12.72324716266662
 22
6.577617207092864
 13
0
 23
0
 14
10
 24
10
 15
10
 25
10
 16
0
 26
0
 36
1
 17
0
 27
0
 37
0
 40
12.9922203570087
 41
1.963613550815558
 42
50
 43
0
 44
0
 50
0
 51
0
 71
    0
 72
  100
 73
    1
 74
    3
 75
    0
 76
    1
 77
    0
 78
    0
281
    0
 65
    1
110
0
120
0
130
0
111
1
121
0
131
0
112
0
122
1
132
0
 79
    0
146
0
348
10020
 60
    7
 61
    5
292
1
282
    1
141
0
142
0
 63
  250
421
3358443
  0
ENDTAB
  0
TABLE
  2
LTYPE
  5
5
330
0
100
AcDbSymbolTable
 70
    4
  0
LTYPE
  5
14
330
5
100
AcDbSymbolTableRecord
100
AcDbLinetypeTableRecord
  2
ByBlock
 70
    0
  3

 72
   65
 73
    0
 40
0
  0
LTYPE
  5
15
330
5
100
AcDbSymbolTableRecord
100
AcDbLinetypeTableRecord
  2
ByLayer
 70
    0
  3

 72
   65
 73
    0
 40
0
  0
LTYPE
  5
16
330
5
100
AcDbSymbolTableRecord
100
AcDbLinetypeTableRecord
  2
Continuous
 70
    0
  3
Solid line
 72
   65
 73
    0
 40
0
  0
LTYPE
  5
32
330
5
100
AcDbSymbolTableRecord
100
AcDbLinetypeTableRecord
  2
DOT
 70
    0
  3
Dot . . . . . . . . . . . . . . . . . . . . . .
 72
   65
 73
    2
 40
6.35
 49
0
 74
    0
 49
-6.35
 74
    0
  0
LTYPE
  5
33
330
5
100
AcDbSymbolTableRecord
100
AcDbLinetypeTableRecord
  2
DOTTINY
 70
    0
  3
Dot (.15x) .....................................
 72
   65
 73
    2
 40
0.9525
 49
0
 74
    0
 49
-0.9525
 74
    0
  0
LTYPE
  5
34
330
5
100
AcDbSymbolTableRecord
100
AcDbLinetypeTableRecord
  2
DOT2
 70
    0
  3
Dot (.5x) .....................................
 72
   65
 73
    2
 40
3.175
 49
0
 74
    0
 49
-3.175
 74
    0
  0
LTYPE
  5
35
330
5
100
AcDbSymbolTableRecord
100
AcDbLinetypeTableRecord
  2
DOTX2
 70
    0
  3
Dot (2x) .  .  .  .  .  .  .  .  .  .  .  .  .
 72
   65
 73
    2
 40
12.7
 49
0
 74
    0
 49
-12.7
 74
    0
  0
LTYPE
  5
36
330
5
100
AcDbSymbolTableRecord
100
AcDbLinetypeTableRecord
  2
DASHED
 70
    0
  3
Dashed _ _ _ _ _ _ _ _ _ _ _ _ _ _ _ _ _
 72
   65
 73
    2
 40
19.05
 49
12.7
 74
    0
 49
-6.35
 74
    0
  0
LTYPE
  5
37
330
5
100
AcDbSymbolTableRecord
100
AcDbLinetypeTableRecord
  2
DASHEDTINY
 70
    0
  3
Dashed (.15x) _ _ _ _ _ _ _ _ _ _ _ _ _ _ _ _ _
 72
   65
 73
    2
 40
2.8575
 49
1.905
 74
    0
 49
-0.9525
 74
    0
  0
LTYPE
  5
38
330
5
100
AcDbSymbolTableRecord
100
AcDbLinetypeTableRecord
  2
DASHED2
 70
    0
  3
Dashed (.5x) _ _ _ _ _ _ _ _ _ _ _ _ _ _ _ _ _
 72
   65
 73
    2
 40
9.524999999999999
 49
6.35
 74
    0
 49
-3.175
 74
    0
  0
LTYPE
  5
39
330
5
100
AcDbSymbolTableRecord
100
AcDbLinetypeTableRecord
  2
DASHEDX2
 70
    0
  3
Dashed (2x) ____  ____  ____  ____  ____  ___
 72
   65
 73
    2
 40
38.09999999999999
 49
25.4
 74
    0
 49
-12.7
 74
    0
  0
LTYPE
  5
3A
330
5
100
AcDbSymbolTableRecord
100
AcDbLinetypeTableRecord
  2
DASHDOT
 70
    0
  3
Dash dot __ . __ . __ . __ . __ . __ . __ . __
 72
   65
 73
    4
 40
25.4
 49
12.7
 74
    0
 49
-6.35
 74
    0
 49
0
 74
    0
 49
-6.35
 74
    0
  0
LTYPE
  5
3B
330
5
100
AcDbSymbolTableRecord
100
AcDbLinetypeTableRecord
  2
DASHDOTTINY
 70
    0
  3
Dash dot (.15x) _._._._._._._._._._._._._._._.
 72
   65
 73
    4
 40
3.81
 49
1.905
 74
    0
 49
-0.9525
 74
    0
 49
0
 74
    0
 49
-0.9525
 74
    0
  0
LTYPE
  5
3C
330
5
100
AcDbSymbolTableRecord
100
AcDbLinetypeTableRecord
  2
DASHDOT2
 70
    0
  3
Dash dot (.5x) _._._._._._._._._._._._._._._.
 72
   65
 73
    4
 40
12.7
 49
6.35
 74
    0
 49
-3.175
 74
    0
 49
0
 74
    0
 49
-3.175
 74
    0
  0
LTYPE
  5
3D
330
5
100
AcDbSymbolTableRecord
100
AcDbLinetypeTableRecord
  2
DASHDOTX2
 70
    0
  3
Dash dot (2x) ____  .  ____  .  ____  .  ___
 72
   65
 73
    4
 40
50.8
 49
25.4
 74
    0
 49
-12.7
 74
    0
 49
0
 74
    0
 49
-12.7
 74
    0
  0
LTYPE
  5
3E
330
5
100
AcDbSymbolTableRecord
100
AcDbLinetypeTableRecord
  2
DIVIDE
 70
    0
  3
Divide ____ . . ____ . . ____ . . ____ . . ____
 72
   65
 73
    6
 40
31.75
 49
12.7
 74
    0
 49
-6.35
 74
    0
 49
0
 74
    0
 49
-6.35
 74
    0
 49
0
 74
    0
 49
-6.35
 74
    0
  0
LTYPE
  5
3F
330
5
100
AcDbSymbolTableRecord
100
AcDbLinetypeTableRecord
  2
DIVIDETINY
 70
    0
  3
Divide (.15x) __..__..__..__..__..__..__..__.._
 72
   65
 73
    6
 40
4.7625
 49
1.905
 74
    0
 49
-0.9525
 74
    0
 49
0
 74
    0
 49
-0.9525
 74
    0
 49
0
 74
    0
 49
-0.9525
 74
    0
  0
LTYPE
  5
40
330
5
100
AcDbSymbolTableRecord
100
AcDbLinetypeTableRecord
  2
DIVIDE2
 70
    0
  3
Divide (.5x) __..__..__..__..__..__..__..__.._
 72
   65
 73
    6
 40
15.875
 49
6.35
 74
    0
 49
-3.175
 74
    0
 49
0
 74
    0
 49
-3.175
 74
    0
 49
0
 74
    0
 49
-3.175
 74
    0
  0
LTYPE
  5
41
330
5
100
AcDbSymbolTableRecord
100
AcDbLinetypeTableRecord
  2
DIVIDEX2
 70
    0
  3
Divide (2x) ________  .  .  ________  .  .  _
 72
   65
 73
    6
 40
63.5
 49
25.4
 74
    0
 49
-12.7
 74
    0
 49
0
 74
    0
 49
-12.7
 74
    0
 49
0
 74
    0
 49
-12.7
 74
    0
  0
LTYPE
  5
42
330
5
100
AcDbSymbolTableRecord
100
AcDbLinetypeTableRecord
  2
BORDER
 70
    0
  3
Border __ __ . __ __ . __ __ . __ __ . __ __ .
 72
   65
 73
    6
 40
44.45
 49
12.7
 74
    0
 49
-6.35
 74
    0
 49
12.7
 74
    0
 49
-6.35
 74
    0
 49
0
 74
    0
 49
-6.35
 74
    0
  0
LTYPE
  5
43
330
5
100
AcDbSymbolTableRecord
100
AcDbLinetypeTableRecord
  2
BORDERTINY
 70
    0
  3
Border (.15x) __.__.__.__.__.__.__.__.__.__.__.
 72
   65
 73
    6
 40
6.6675
 49
1.905
 74
    0
 49
-0.9525
 74
    0
 49
1.905
 74
    0
 49
-0.9525
 74
    0
 49
0
 74
    0
 49
-0.9525
 74
    0
  0
LTYPE
  5
44
330
5
100
AcDbSymbolTableRecord
100
AcDbLinetypeTableRecord
  2
BORDER2
 70
    0
  3
Border (.5x) __.__.__.__.__.__.__.__.__.__.__.
 72
   65
 73
    6
 40
22.225
 49
6.35
 74
    0
 49
-3.175
 74
    0
 49
6.35
 74
    0
 49
-3.175
 74
    0
 49
0
 74
    0
 49
-3.175
 74
    0
  0
LTYPE
  5
45
330
5
100
AcDbSymbolTableRecord
100
AcDbLinetypeTableRecord
  2
BORDERX2
 70
    0
  3
Border (2x) ____  ____  .  ____  ____  .  ___
 72
   65
 73
    6
 40
88.89999999999999
 49
25.4
 74
    0
 49
-12.7
 74
    0
 49
25.4
 74
    0
 49
-12.7
 74
    0
 49
0
 74
    0
 49
-12.7
 74
    0
  0
LTYPE
  5
46
330
5
100
AcDbSymbolTableRecord
100
AcDbLinetypeTableRecord
  2
CENTER
 70
    0
  3
Center ____ _ ____ _ ____ _ ____ _ ____ _ ____
 72
   65
 73
    4
 40
50.8
 49
31.75
 74
    0
 49
-6.35
 74
    0
 49
6.35
 74
    0
 49
-6.35
 74
    0
  0
LTYPE
  5
47
330
5
100
AcDbSymbolTableRecord
100
AcDbLinetypeTableRecord
  2
CENTERTINY
 70
    0
  3
Center (.15x) ___ _ ___ _ ___ _ ___ _ ___ _ ___
 72
   65
 73
    4
 40
7.62
 49
4.7625
 74
    0
 49
-0.9525
 74
    0
 49
0.9525
 74
    0
 49
-0.9525
 74
    0
  0
LTYPE
  5
48
330
5
100
AcDbSymbolTableRecord
100
AcDbLinetypeTableRecord
  2
CENTER2
 70
    0
  3
Center (.5x) ___ _ ___ _ ___ _ ___ _ ___ _ ___
 72
   65
 73
    4
 40
28.575
 49
19.05
 74
    0
 49
-3.175
 74
    0
 49
3.175
 74
    0
 49
-3.175
 74
    0
  0
LTYPE
  5
49
330
5
100
AcDbSymbolTableRecord
100
AcDbLinetypeTableRecord
  2
CENTERX2
 70
    0
  3
Center (2x) ________  __  ________  __  _____
 72
   65
 73
    4
 40
101.6
 49
63.5
 74
    0
 49
-12.7
 74
    0
 49
12.7
 74
    0
 49
-12.7
 74
    0
  0
ENDTAB
  0
TABLE
  2
LAYER
  5
2
330
0
100
AcDbSymbolTable
 70
    1
  0
LAYER
  5
10
330
2
100
AcDbSymbolTableRecord
100
AcDbLayerTableRecord
  2
0
 70
    0
 62
    7
  6
CONTINUOUS
370
    0
390
F
  0
LAYER
  5
4A
330
2
100
AcDbSymbolTableRecord
100
AcDbLayerTableRecord
  2
centerlines
 70
    0
 62
    7
  6
DASHDOT2
370
    0
390
F
  0
LAYER
  5
4B
330
2
100
AcDbSymbolTableRecord
100
AcDbLayerTableRecord
  2
dimension
 70
    0
 62
    7
  6
CONTINUOUS
370
    0
390
F
  0
LAYER
  5
4C
330
2
100
AcDbSymbolTableRecord
100
AcDbLayerTableRecord
  2
geometry
 70
    0
 62
    7
  6
CONTINUOUS
370
    0
390
F
  0
LAYER
  5
4D
330
2
100
AcDbSymbolTableRecord
100
AcDbLayerTableRecord
  2
hints
 70
    1
 62
    7
  6
DASHEDTINY
370
    0
390
F
  0
ENDTAB
  0
TABLE
  2
STYLE
  5
3
330
0
100
AcDbSymbolTable
 70
    3
  0
STYLE
  5
4E
330
2
100
AcDbSymbolTableRecord
100
AcDbTextStyleTableRecord
  2
STANDARD
 70
    0
 40
0
 41
1
 50
0
 71
    0
 42
1
  3
STANDARD
  4

  0
ENDTAB
  0
TABLE
  2
VIEW
  5
6
330
0
100
AcDbSymbolTable
 70
    0
  0
ENDTAB
  0
TABLE
  2
UCS
  5
7
330
0
100
AcDbSymbolTable
 70
    0
  0
ENDTAB
  0
TABLE
  2
APPID
  5
9
330
0
100
AcDbSymbolTable
 70
    1
  0
APPID
  5
12
330
9
100
AcDbSymbolTableRecord
100
AcDbRegAppTableRecord
  2
ACAD
 70
    0
  0
APPID
  5
4F
330
9
100
AcDbSymbolTableRecord
100
AcDbRegAppTableRecord
  2
LibreCad
 70
    0
  0
ENDTAB
  0
TABLE
  2
DIMSTYLE
  5
A
330
0
100
AcDbSymbolTable
 70
    1
100
AcDbDimStyleTable
 71
    1
  0
DIMSTYLE
105
50
330
A
100
AcDbSymbolTableRecord
100
AcDbDimStyleTableRecord
  2
Standard
 70
    0
 40
1
 41
0.5
 42
0.625
 43
0.38
 44
1.25
 45
0
 46
0
 47
0
 48
0
 49
1
140
0.25
141
0.09
142
0
143
25.4
144
1
145
0
146
1
147
0.625
148
0
 71
    0
 72
    0
 73
    0
 74
    1
 75
    0
 76
    0
 77
    0
 78
    1
 79
    0
170
    0
171
    2
172
    0
173
    0
174
    0
175
    0
176
    0
177
    0
178
    0
179
    2
271
    3
272
    4
273
    2
274
    2
275
    0
276
    0
277
    2
278
    0
279
    0
280
    0
281
    0
282
    0
283
    1
284
    0
285
    0
286
    0
288
    0
289
    3
340
standard
341

371
   -2
372
   -2
  0
ENDTAB
  0
TABLE
  2
BLOCK_RECORD
  5
1
330
0
100
AcDbSymbolTable
 70
    2
  0
BLOCK_RECORD
  5
1F
330
1
100
AcDbSymbolTableRecord
100
AcDbBlockTableRecord
  2
*Model_Space
 70
    0
280
    1
281
    0
  0
BLOCK_RECORD
  5
1E
330
1
100
AcDbSymbolTableRecord
100
AcDbBlockTableRecord
  2
*Paper_Space
 70
    0
280
    1
281
    0
  0
BLOCK_RECORD
  5
51
330
1
100
AcDbSymbolTableRecord
100
AcDbBlockTableRecord
  2
*D23
 70
    0
280
    1
281
    0
  0
BLOCK_RECORD
  5
54
330
1
100
AcDbSymbolTableRecord
100
AcDbBlockTableRecord
  2
*D9
 70
    0
280
    1
281
    0
  0
BLOCK_RECORD
  5
57
330
1
100
AcDbSymbolTableRecord
100
AcDbBlockTableRecord
  2
*D21
 70
    0
280
    1
281
    0
  0
BLOCK_RECORD
  5
5A
330
1
100
AcDbSymbolTableRecord
100
AcDbBlockTableRecord
  2
*D26
 70
    0
280
    1
281
    0
  0
BLOCK_RECORD
  5
5D
330
1
100
AcDbSymbolTableRecord
100
AcDbBlockTableRecord
  2
*D7
 70
    0
280
    1
281
    0
  0
BLOCK_RECORD
  5
60
330
1
100
AcDbSymbolTableRecord
100
AcDbBlockTableRecord
  2
*D25
 70
    0
280
    1
281
    0
  0
BLOCK_RECORD
  5
63
330
1
100
AcDbSymbolTableRecord
100
AcDbBlockTableRecord
  2
*D22
 70
    0
280
    1
281
    0
  0
BLOCK_RECORD
  5
66
330
1
100
AcDbSymbolTableRecord
100
AcDbBlockTableRecord
  2
*D11
 70
    0
280
    1
281
    0
  0
BLOCK_RECORD
  5
69
330
1
100
AcDbSymbolTableRecord
100
AcDbBlockTableRecord
  2
*D24
 70
    0
280
    1
281
    0
  0
BLOCK_RECORD
  5
6C
330
1
100
AcDbSymbolTableRecord
100
AcDbBlockTableRecord
  2
*D16
 70
    0
280
    1
281
    0
  0
BLOCK_RECORD
  5
6F
330
1
100
AcDbSymbolTableRecord
100
AcDbBlockTableRecord
  2
*D14
 70
    0
280
    1
281
    0
  0
BLOCK_RECORD
  5
72
330
1
100
AcDbSymbolTableRecord
100
AcDbBlockTableRecord
  2
*D15
 70
    0
280
    1
281
    0
  0
BLOCK_RECORD
  5
75
330
1
100
AcDbSymbolTableRecord
100
AcDbBlockTableRecord
  2
*D4
 70
    0
280
    1
281
    0
  0
BLOCK_RECORD
  5
78
330
1
100
AcDbSymbolTableRecord
100
AcDbBlockTableRecord
  2
*D20
 70
    0
280
    1
281
    0
  0
BLOCK_RECORD
  5
7B
330
1
100
AcDbSymbolTableRecord
100
AcDbBlockTableRecord
  2
*D2
 70
    0
280
    1
281
    0
  0
BLOCK_RECORD
  5
7E
330
1
100
AcDbSymbolTableRecord
100
AcDbBlockTableRecord
  2
*D1
 70
    0
280
    1
281
    0
  0
BLOCK_RECORD
  5
81
330
1
100
AcDbSymbolTableRecord
100
AcDbBlockTableRecord
  2
*D13
 70
    0
280
    1
281
    0
  0
BLOCK_RECORD
  5
84
330
1
100
AcDbSymbolTableRecord
100
AcDbBlockTableRecord
  2
*D6
 70
    0
280
    1
281
    0
  0
BLOCK_RECORD
  5
87
330
1
100
AcDbSymbolTableRecord
100
AcDbBlockTableRecord
  2
*D19
 70
    0
280
    1
281
    0
  0
BLOCK_RECORD
  5
8A
330
1
100
AcDbSymbolTableRecord
100
AcDbBlockTableRecord
  2
*D5
 70
    0
280
    1
281
    0
  0
BLOCK_RECORD
  5
8D
330
1
100
AcDbSymbolTableRecord
100
AcDbBlockTableRecord
  2
*D8
 70
    0
280
    1
281
    0
  0
BLOCK_RECORD
  5
90
330
1
100
AcDbSymbolTableRecord
100
AcDbBlockTableRecord
  2
*D17
 70
    0
280
    1
281
    0
  0
BLOCK_RECORD
  5
93
330
1
100
AcDbSymbolTableRecord
100
AcDbBlockTableRecord
  2
*D3
 70
    0
280
    1
281
    0
  0
BLOCK_RECORD
  5
96
330
1
100
AcDbSymbolTableRecord
100
AcDbBlockTableRecord
  2
*D10
 70
    0
280
    1
281
    0
  0
BLOCK_RECORD
  5
99
330
1
100
AcDbSymbolTableRecord
100
AcDbBlockTableRecord
  2
*D27
 70
    0
280
    1
281
    0
  0
BLOCK_RECORD
  5
9C
330
1
100
AcDbSymbolTableRecord
100
AcDbBlockTableRecord
  2
*D28
 70
    0
280
    1
281
    0
  0
BLOCK_RECORD
  5
9F
330
1
100
AcDbSymbolTableRecord
100
AcDbBlockTableRecord
  2
*D18
 70
    0
280
    1
281
    0
  0
BLOCK_RECORD
  5
A2
330
1
100
AcDbSymbolTableRecord
100
AcDbBlockTableRecord
  2
*D12
 70
    0
280
    1
281
    0
  0
ENDTAB
  0
ENDSEC
  0
SECTION
  2
BLOCKS
  0
BLOCK
  5
20
330
1F
100
AcDbEntity
  8
0
100
AcDbBlockBegin
  2
*Model_Space
 70
    0
 10
0
 20
0
 30
0
  3
*Model_Space
  1

  0
ENDBLK
  5
21
330
1F
100
AcDbEntity
  8
0
100
AcDbBlockEnd
  0
BLOCK
  5
1C
330
1B
100
AcDbEntity
  8
0
100
AcDbBlockBegin
  2
*Paper_Space
 70
    0
 10
0
 20
0
 30
0
  3
*Paper_Space
  1

  0
ENDBLK
  5
1D
330
1F
100
AcDbEntity
  8
0
100
AcDbBlockEnd
  0
BLOCK
  5
52
330
51
100
AcDbEntity
  8
0
100
AcDbBlockBegin
  2
*D23
 70
    1
 10
0
 20
0
  3
*D23
  1

  0
LINE
  5
A5
100
AcDbEntity
  8
dimension
  6
ByBlock
 62
    0
370
   -2
100
AcDbLine
 10
4.275
 20
2.36
 11
2.55
 21
2.36
  0
LINE
  5
A6
100
AcDbEntity
  8
dimension
  6
ByBlock
 62
    0
370
   -2
100
AcDbLine
 10
4.275
 20
3.24
 11
2.55
 21
3.24
  0
LINE
  5
A7
100
AcDbEntity
  8
dimension
  6
ByBlock
 62
    0
370
   -2
100
AcDbLine
 10
3.8
 20
1.36
 11
3.8
 21
4.24
  0
SOLID
  5
A8
100
AcDbEntity
  8
dimension
  6
ByBlock
 62
    0
370
   -2
100
AcDbTrace
 10
3.8
 20
2.36
 30
0
 11
3.883256931554568
 21
1.86
 31
0
 12
3.716743068445432
 22
1.86
 32
0
 13
3.716743068445432
 23
1.86
 33
0
  0
SOLID
  5
A9
100
AcDbEntity
  8
dimension
  6
ByBlock
 62
    0
370
   -2
100
AcDbTrace
 10
3.8
 20
3.24
 30
0
 11
3.716743068445432
 21
3.74
 31
0
 12
3.883256931554568
 22
3.74
 32
0
 13
3.883256931554568
 23
3.74
 33
0
  0
MTEXT
  5
AA
100
AcDbEntity
  8
dimension
  6
CONTINUOUS
 62
    0
370
   -2
100
AcDbMText
 10
3.600000000000001
 20
2.8
 30
0
 40
0.25
 41
0.7777777777777777
 71
    5
 72
    1
  1
0.880
  7
standard
210
0
220
0
230
1
 50
90
 73
    2
 44
1
  0
ENDBLK
  5
53
330
51
100
AcDbEntity
  8
0
100
AcDbBlockEnd
  0
BLOCK
  5
55
330
54
100
AcDbEntity
  8
0
100
AcDbBlockBegin
  2
*D9
 70
    1
 10
0
 20
0
  3
*D9
  1

  0
LINE
  5
AB
100
AcDbEntity
  8
dimension
  6
ByBlock
 62
    0
370
   -2
100
AcDbLine
 10
13.5
 20
3.302
 11
13.5
 21
4.950000000000001
  0
LINE
  5
AC
100
AcDbEntity
  8
dimension
  6
ByBlock
 62
    0
370
   -2
100
AcDbLine
 10
12.625
 20
3.302
 11
12.625
 21
4.950000000000001
  0
LINE
  5
AD
100
AcDbEntity
  8
dimension
  6
ByBlock
 62
    0
370
   -2
100
AcDbLine
 10
14.5
 20
3.700000000000001
 11
11.625
 21
3.700000000000001
  0
SOLID
  5
AE
100
AcDbEntity
  8
dimension
  6
ByBlock
 62
    0
370
   -2
100
AcDbTrace
 10
13.5
 20
3.700000000000001
 30
0
 11
14
 21
3.783256931554569
 31
0
 12
14
 22
3.616743068445433
 32
0
 13
14
 23
3.616743068445433
 33
0
  0
SOLID
  5
AF
100
AcDbEntity
  8
dimension
  6
ByBlock
 62
    0
370
   -2
100
AcDbTrace
 10
12.625
 20
3.700000000000001
 30
0
 11
12.125
 21
3.616743068445433
 31
0
 12
12.125
 22
3.783256931554569
 32
0
 13
12.125
 23
3.783256931554569
 33
0
  0
MTEXT
  5
B0
100
AcDbEntity
  8
dimension
  6
CONTINUOUS
 62
    0
370
   -2
100
AcDbMText
 10
13.1
 20
3.9
 30
0
 40
0.25
 41
0.7777777777777932
 71
    5
 72
    1
  1
0.875
  7
standard
210
0
220
0
230
1
 50
360
 73
    2
 44
1
  0
ENDBLK
  5
56
330
54
100
AcDbEntity
  8
0
100
AcDbBlockEnd
  0
BLOCK
  5
58
330
57
100
AcDbEntity
  8
0
100
AcDbBlockBegin
  2
*D21
 70
    1
 10
0
 20
0
  3
*D21
  1

  0
LINE
  5
B1
100
AcDbEntity
  8
dimension
  6
ByBlock
 62
    0
370
   -2
100
AcDbLine
 10
20.77
 20
3.952
 11
20.77
 21
4.850000000000001
  0
LINE
  5
B2
100
AcDbEntity
  8
dimension
  6
ByBlock
 62
    0
370
   -2
100
AcDbLine
 10
20.665
 20
3.952
 11
20.665
 21
4.850000000000001
  0
LINE
  5
B3
100
AcDbEntity
  8
dimension
  6
ByBlock
 62
    0
370
   -2
100
AcDbLine
 10
21.77
 20
3.600000000000001
 11
19.665
 21
3.600000000000001
  0
SOLID
  5
B4
100
AcDbEntity
  8
dimension
  6
ByBlock
 62
    0
370
   -2
100
AcDbTrace
 10
20.77
 20
3.600000000000001
 30
0
 11
21.27
 21
3.683256931554569
 31
0
 12
21.27
 22
3.516743068445433
 32
0
 13
21.27
 23
3.516743068445433
 33
0
  0
SOLID
  5
B5
100
AcDbEntity
  8
dimension
  6
ByBlock
 62
    0
370
   -2
100
AcDbTrace
 10
20.665
 20
3.600000000000001
 30
0
 11
20.165
 21
3.516743068445433
 31
0
 12
20.165
 22
3.683256931554569
 32
0
 13
20.165
 23
3.683256931554569
 33
0
  0
MTEXT
  5
B6
100
AcDbEntity
  8
dimension
  6
CONTINUOUS
 62
    0
370
   -2
100
AcDbMText
 10
21.23861111111112
 20
3.899999999999999
 30
0
 40
0.25
 41
0.7222222222222376
 71
    5
 72
    1
  1
0.105
  7
standard
210
0
220
0
230
1
 50
360
 73
    2
 44
1
  0
ENDBLK
  5
59
330
57
100
AcDbEntity
  8
0
100
AcDbBlockEnd
  0
BLOCK
  5
5B
330
5A
100
AcDbEntity
  8
0
100
AcDbBlockBegin
  2
*D26
 70
    1
 10
0
 20
0
  3
*D26
  1

  0
SOLID
  5
B7
100
AcDbEntity
  8
geometry
  6
ByBlock
 62
    0
370
   -2
100
AcDbTrace
 10
7.266286478659777
 20
2.531507646494054
 30
0
 11
7.477862417398644
 21
2.070891386686989
 31
0
 12
7.317186787822715
 22
2.027185452674468
 32
0
 13
7.317186787822715
 23
2.027185452674468
 33
0
  0
LINE
  5
B8
100
AcDbEntity
  8
geometry
  6
ByBlock
 62
    0
370
   -2
100
AcDbLine
 10
7.254999999999999
 20
2.573
 11
7.740201926260264
 21
0.7892576607792547
  0
MTEXT
  5
B9
100
AcDbEntity
  8
geometry
  6
CONTINUOUS
 62
    0
370
   -2
100
AcDbMText
 10
7.73
 20
1.36
 30
0
 40
0.25
 41
0.805555555555571
 71
    5
 72
    1
  1
0.043
  7
standard
210
0
220
0
230
1
 50
285.2170448092322
 73
    2
 44
1
  0
ENDBLK
  5
5C
330
5A
100
AcDbEntity
  8
0
100
AcDbBlockEnd
  0
BLOCK
  5
5E
330
5D
100
AcDbEntity
  8
0
100
AcDbBlockBegin
  2
*D7
 70
    1
 10
0
 20
0
  3
*D7
  1

  0
LINE
  5
BA
100
AcDbEntity
  8
dimension
  6
ByBlock
 62
    0
370
   -2
100
AcDbLine
 10
4
 20
3.425
 11
4
 21
8.25
  0
LINE
  5
BB
100
AcDbEntity
  8
dimension
  6
ByBlock
 62
    0
370
   -2
100
AcDbLine
 10
4.691
 20
3.425
 11
4.691
 21
8.25
  0
LINE
  5
BC
100
AcDbEntity
  8
dimension
  6
ByBlock
 62
    0
370
   -2
100
AcDbLine
 10
3
 20
7
 11
5.691
 21
7
  0
SOLID
  5
BD
100
AcDbEntity
  8
dimension
  6
ByBlock
 62
    0
370
   -2
100
AcDbTrace
 10
4
 20
7
 30
0
 11
3.5
 21
6.916743068445432
 31
0
 12
3.5
 22
7.083256931554568
 32
0
 13
3.5
 23
7.083256931554568
 33
0
  0
SOLID
  5
BE
100
AcDbEntity
  8
dimension
  6
ByBlock
 62
    0
370
   -2
100
AcDbTrace
 10
4.691
 20
7
 30
0
 11
5.191
 21
7.083256931554568
 31
0
 12
5.191
 22
6.916743068445432
 32
0
 13
5.191
 23
6.916743068445432
 33
0
  0
MTEXT
  5
BF
100
AcDbEntity
  8
dimension
  6
CONTINUOUS
 62
    0
370
   -2
100
AcDbMText
 10
5.131611111111119
 20
7.5
 30
0
 40
0.25
 41
0.7222222222222379
 71
    5
 72
    1
  1
0.691
  7
standard
210
0
220
0
230
1
 50
0
 73
    2
 44
1
  0
ENDBLK
  5
5F
330
5D
100
AcDbEntity
  8
0
100
AcDbBlockEnd
  0
BLOCK
  5
61
330
60
100
AcDbEntity
  8
0
100
AcDbBlockBegin
  2
*D25
 70
    1
 10
0
 20
0
  3
*D25
  1

  0
SOLID
  5
C0
100
AcDbEntity
  8
geometry
  6
ByBlock
 62
    0
370
   -2
100
AcDbTrace
 10
5.770586918338569
 20
2.366408215266418
 30
0
 11
5.98186441609324
 21
1.905654988913734
 31
0
 12
5.821160506639181
 22
1.862053153015346
 32
0
 13
5.821160506639181
 23
1.862053153015346
 33
0
  0
LINE
  5
C1
100
AcDbEntity
  8
geometry
  6
ByBlock
 62
    0
370
   -2
100
AcDbLine
 10
5.73
 20
2.516
 11
6.221552677656009
 21
0.7042772737821432
  0
MTEXT
  5
C2
100
AcDbEntity
  8
geometry
  6
CONTINUOUS
 62
    0
370
   -2
100
AcDbMText
 10
6.25
 20
1.24
 30
0
 40
0.25
 41
0.7222222222222532
 71
    5
 72
    1
  1
0.155
  7
standard
210
0
220
0
230
1
 50
285.1799274345263
 73
    2
 44
1
  0
ENDBLK
  5
62
330
60
100
AcDbEntity
  8
0
100
AcDbBlockEnd
  0
BLOCK
  5
64
330
63
100
AcDbEntity
  8
0
100
AcDbBlockBegin
  2
*D22
 70
    1
 10
0
 20
0
  3
*D22
  1

  0
LINE
  5
C3
100
AcDbEntity
  8
dimension
  6
ByBlock
 62
    0
370
   -2
100
AcDbLine
 10
4
 20
4.025
 11
4
 21
10.25
  0
LINE
  5
C4
100
AcDbEntity
  8
dimension
  6
ByBlock
 62
    0
370
   -2
100
AcDbLine
 10
20.77
 20
4.025
 11
20.77
 21
10.25
  0
LINE
  5
C5
100
AcDbEntity
  8
dimension
  6
ByBlock
 62
    0
370
   -2
100
AcDbLine
 10
4
 20
9
 11
20.77
 21
9
  0
SOLID
  5
C6
100
AcDbEntity
  8
dimension
  6
ByBlock
 62
    0
370
   -2
100
AcDbTrace
 10
4
 20
9
 30
0
 11
4.5
 21
9.083256931554567
 31
0
 12
4.5
 22
8.916743068445431
 32
0
 13
4.5
 23
8.916743068445431
 33
0
  0
SOLID
  5
C7
100
AcDbEntity
  8
dimension
  6
ByBlock
 62
    0
370
   -2
100
AcDbTrace
 10
20.77
 20
9
 30
0
 11
20.27
 21
8.916743068445433
 31
0
 12
20.27
 22
9.083256931554567
 32
0
 13
20.27
 23
9.083256931554567
 33
0
  0
MTEXT
  5
C8
100
AcDbEntity
  8
dimension
  6
CONTINUOUS
 62
    0
370
   -2
100
AcDbMText
 10
12.4
 20
9.199999999999999
 30
0
 40
0.25
 41
0.9166666666666822
 71
    5
 72
    1
  1
16.770
  7
standard
210
0
220
0
230
1
 50
0
 73
    2
 44
1
  0
ENDBLK
  5
65
330
63
100
AcDbEntity
  8
0
100
AcDbBlockEnd
  0
BLOCK
  5
67
330
66
100
AcDbEntity
  8
0
100
AcDbBlockBegin
  2
*D11
 70
    1
 10
0
 20
0
  3
*D11
  1

  0
LINE
  5
C9
100
AcDbEntity
  8
dimension
  6
ByBlock
 62
    0
370
   -2
100
AcDbLine
 10
20.77
 20
2.625
 11
20.77
 21
6.950000000000001
  0
LINE
  5
CA
100
AcDbEntity
  8
dimension
  6
ByBlock
 62
    0
370
   -2
100
AcDbLine
 10
12.386
 20
2.625
 11
12.386
 21
6.950000000000001
  0
LINE
  5
CB
100
AcDbEntity
  8
dimension
  6
ByBlock
 62
    0
370
   -2
100
AcDbLine
 10
20.77
 20
5.700000000000001
 11
12.386
 21
5.700000000000001
  0
SOLID
  5
CC
100
AcDbEntity
  8
dimension
  6
ByBlock
 62
    0
370
   -2
100
AcDbTrace
 10
20.77
 20
5.700000000000001
 30
0
 11
20.27
 21
5.616743068445433
 31
0
 12
20.27
 22
5.783256931554569
 32
0
 13
20.27
 23
5.783256931554569
 33
0
  0
SOLID
  5
CD
100
AcDbEntity
  8
dimension
  6
ByBlock
 62
    0
370
   -2
100
AcDbTrace
 10
12.386
 20
5.700000000000001
 30
0
 11
12.886
 21
5.783256931554569
 31
0
 12
12.886
 22
5.616743068445433
 32
0
 13
12.886
 23
5.616743068445433
 33
0
  0
MTEXT
  5
CE
100
AcDbEntity
  8
dimension
  6
CONTINUOUS
 62
    0
370
   -2
100
AcDbMText
 10
16.5
 20
5.9
 30
0
 40
0.25
 41
0.8055555555555711
 71
    5
 72
    1
  1
8.384
  7
standard
210
0
220
0
230
1
 50
360
 73
    2
 44
1
  0
ENDBLK
  5
68
330
66
100
AcDbEntity
  8
0
100
AcDbBlockEnd
  0
BLOCK
  5
6A
330
69
100
AcDbEntity
  8
0
100
AcDbBlockBegin
  2
*D24
 70
    1
 10
0
 20
0
  3
*D24
  1

  0
LINE
  5
CF
100
AcDbEntity
  8
dimension
  6
ByBlock
 62
    0
370
   -2
100
AcDbLine
 10
3.480999999999999
 20
2.130000000000001
 11
2.149999999999999
 21
2.130000000000003
  0
LINE
  5
D0
100
AcDbEntity
  8
dimension
  6
ByBlock
 62
    0
370
   -2
100
AcDbLine
 10
3.481
 20
3.327000000000001
 11
2.15
 21
3.327000000000003
  0
LINE
  5
D1
100
AcDbEntity
  8
dimension
  6
ByBlock
 62
    0
370
   -2
100
AcDbLine
 10
3.399999999999998
 20
1.130000000000001
 11
3.400000000000001
 21
4.327000000000001
  0
SOLID
  5
D2
100
AcDbEntity
  8
dimension
  6
ByBlock
 62
    0
370
   -2
100
AcDbTrace
 10
3.399999999999999
 20
2.130000000000001
 30
0
 11
3.483256931554567
 21
1.630000000000001
 31
0
 12
3.31674306844543
 22
1.630000000000001
 32
0
 13
3.31674306844543
 23
1.630000000000001
 33
0
  0
SOLID
  5
D3
100
AcDbEntity
  8
dimension
  6
ByBlock
 62
    0
370
   -2
100
AcDbTrace
 10
3.4
 20
3.327000000000001
 30
0
 11
3.316743068445432
 21
3.827000000000001
 31
0
 12
3.483256931554569
 22
3.827000000000001
 32
0
 13
3.483256931554569
 23
3.827000000000001
 33
0
  0
MTEXT
  5
D4
100
AcDbEntity
  8
dimension
  6
CONTINUOUS
 62
    0
370
   -2
100
AcDbMText
 10
3.2
 20
2.8
 30
0
 40
0.25
 41
0.6666666666666666
 71
    5
 72
    1
  1
1.197
  7
standard
210
0
220
0
230
1
 50
89.99999999999996
 73
    2
 44
1
  0
ENDBLK
  5
6B
330
69
100
AcDbEntity
  8
0
100
AcDbBlockEnd
  0
BLOCK
  5
6D
330
6C
100
AcDbEntity
  8
0
100
AcDbBlockBegin
  2
*D16
 70
    1
 10
0
 20
0
  3
*D16
  1

  0
SOLID
  5
D5
100
AcDbEntity
  8
dimension
  6
ByBlock
 62
    0
370
   -2
100
AcDbTrace
 10
15.32364098639194
 20
2.405510230168387
 30
0
 11
15.53488840331553
 21
1.944743211497353
 31
0
 12
15.37418164764802
 22
1.901151867283741
 32
0
 13
15.37418164764802
 23
1.901151867283741
 33
0
  0
LINE
  5
D6
100
AcDbEntity
  8
dimension
  6
ByBlock
 62
    0
370
   -2
100
AcDbLine
 10
15.25
 20
2.677
 11
15.77449823214581
 21
0.7433498508224932
  0
MTEXT
  5
D7
100
AcDbEntity
  8
dimension
  6
CONTINUOUS
 62
    0
370
   -2
100
AcDbMText
 10
15.9
 20
1.2
 30
0
 40
0.25
 41
0.7222222222222221
 71
    5
 72
    1
  1
0.281
  7
standard
210
0
220
0
230
1
 50
285.176186866321
 73
    2
 44
1
  0
ENDBLK
  5
6E
330
6C
100
AcDbEntity
  8
0
100
AcDbBlockEnd
  0
BLOCK
  5
70
330
6F
100
AcDbEntity
  8
0
100
AcDbBlockBegin
  2
*D14
 70
    1
 10
0
 20
0
  3
*D14
  1

  0
SOLID
  5
D8
100
AcDbEntity
  8
dimension
  6
ByBlock
 62
    0
370
   -2
100
AcDbTrace
 10
7.456408763961235
 20
2.739174409454042
 30
0
 11
7.667020414905171
 21
2.278116442232401
 31
0
 12
7.506253683830537
 22
2.234746812454131
 32
0
 13
7.506253683830537
 23
2.234746812454131
 33
0
  0
LINE
  5
D9
100
AcDbEntity
  8
dimension
  6
ByBlock
 62
    0
370
   -2
100
AcDbLine
 10
7.440000000000001
 20
2.8
 11
7.919442667629222
 21
1.022755628615698
  0
MTEXT
  5
DA
100
AcDbEntity
  8
dimension
  6
CONTINUOUS
 62
    0
370
   -2
100
AcDbMText
 10
8
 20
1.5
 30
0
 40
0.25
 41
0.7777777777778088
 71
    5
 72
    1
  1
0.063
  7
standard
210
0
220
0
230
1
 50
285.0971551581898
 73
    2
 44
1
  0
ENDBLK
  5
71
330
6F
100
AcDbEntity
  8
0
100
AcDbBlockEnd
  0
BLOCK
  5
73
330
72
100
AcDbEntity
  8
0
100
AcDbBlockBegin
  2
*D15
 70
    1
 10
0
 20
0
  3
*D15
  1

  0
SOLID
  5
DB
100
AcDbEntity
  8
dimension
  6
ByBlock
 62
    0
370
   -2
100
AcDbTrace
 10
12.40761584939015
 20
2.074326721657229
 30
0
 11
12.62500148662736
 21
1.616423673649408
 31
0
 12
12.46489157670376
 22
1.570688748791224
 32
0
 13
12.46489157670376
 23
1.570688748791224
 33
0
  0
LINE
  5
DC
100
AcDbEntity
  8
dimension
  6
ByBlock
 62
    0
370
   -2
100
AcDbLine
 10
12.386
 20
2.15
 11
12.89590271970272
 21
0.3649204623259825
  0
MTEXT
  5
DD
100
AcDbEntity
  8
dimension
  6
CONTINUOUS
 62
    0
370
   -2
100
AcDbMText
 10
13
 20
0.8999999999999999
 30
0
 40
0.25
 41
0.7777777777777777
 71
    5
 72
    1
  1
0.079
  7
standard
210
0
220
0
230
1
 50
285.9418347237581
 73
    2
 44
1
  0
ENDBLK
  5
74
330
72
100
AcDbEntity
  8
0
100
AcDbBlockEnd
  0
BLOCK
  5
76
330
75
100
AcDbEntity
  8
0
100
AcDbBlockBegin
  2
*D4
 70
    1
 10
0
 20
0
  3
*D4
  1

  0
LINE
  5
DE
100
AcDbEntity
  8
dimension
  6
ByBlock
 62
    0
370
   -2
100
AcDbLine
 10
6.574999999999999
 20
3.425
 11
6.574999999999999
 21
5.850000000000001
  0
LINE
  5
DF
100
AcDbEntity
  8
dimension
  6
ByBlock
 62
    0
370
   -2
100
AcDbLine
 10
7.440000000000001
 20
3.425
 11
7.440000000000001
 21
5.850000000000001
  0
LINE
  5
E0
100
AcDbEntity
  8
dimension
  6
ByBlock
 62
    0
370
   -2
100
AcDbLine
 10
5.574999999999999
 20
4.600000000000001
 11
8.440000000000001
 21
4.600000000000001
  0
SOLID
  5
E1
100
AcDbEntity
  8
dimension
  6
ByBlock
 62
    0
370
   -2
100
AcDbTrace
 10
6.574999999999999
 20
4.600000000000001
 30
0
 11
6.074999999999999
 21
4.516743068445433
 31
0
 12
6.074999999999999
 22
4.68325693155457
 32
0
 13
6.074999999999999
 23
4.68325693155457
 33
0
  0
SOLID
  5
E2
100
AcDbEntity
  8
dimension
  6
ByBlock
 62
    0
370
   -2
100
AcDbTrace
 10
7.440000000000001
 20
4.600000000000001
 30
0
 11
7.940000000000001
 21
4.68325693155457
 31
0
 12
7.940000000000001
 22
4.516743068445433
 32
0
 13
7.940000000000001
 23
4.516743068445433
 33
0
  0
MTEXT
  5
E3
100
AcDbEntity
  8
dimension
  6
CONTINUOUS
 62
    0
370
   -2
100
AcDbMText
 10
7
 20
4.8
 30
0
 40
0.25
 41
0.7777777777778088
 71
    5
 72
    1
  1
0.865
  7
standard
210
0
220
0
230
1
 50
0
 73
    2
 44
1
  0
ENDBLK
  5
77
330
75
100
AcDbEntity
  8
0
100
AcDbBlockEnd
  0
BLOCK
  5
79
330
78
100
AcDbEntity
  8
0
100
AcDbBlockBegin
  2
*D20
 70
    1
 10
0
 20
0
  3
*D20
  1

  0
LINE
  5
E4
100
AcDbEntity
  8
dimension
  6
ByBlock
 62
    0
370
   -2
100
AcDbLine
 10
21.025
 20
2
 11
22.85
 21
2
  0
LINE
  5
E5
100
AcDbEntity
  8
dimension
  6
ByBlock
 62
    0
370
   -2
100
AcDbLine
 10
21.025
 20
3.457
 11
22.85
 21
3.457
  0
LINE
  5
E6
100
AcDbEntity
  8
dimension
  6
ByBlock
 62
    0
370
   -2
100
AcDbLine
 10
21.6
 20
2
 11
21.6
 21
3.457
  0
SOLID
  5
E7
100
AcDbEntity
  8
dimension
  6
ByBlock
 62
    0
370
   -2
100
AcDbTrace
 10
21.6
 20
2
 30
0
 11
21.51674306844543
 21
2.5
 31
0
 12
21.68325693155457
 22
2.5
 32
0
 13
21.68325693155457
 23
2.5
 33
0
  0
SOLID
  5
E8
100
AcDbEntity
  8
dimension
  6
ByBlock
 62
    0
370
   -2
100
AcDbTrace
 10
21.6
 20
3.457
 30
0
 11
21.68325693155457
 21
2.957
 31
0
 12
21.51674306844543
 22
2.957
 32
0
 13
21.51674306844543
 23
2.957
 33
0
  0
MTEXT
  5
E9
100
AcDbEntity
  8
dimension
  6
CONTINUOUS
 62
    0
370
   -2
100
AcDbMText
 10
21.2
 20
2.5
 30
0
 40
0.25
 41
0.7500000000000154
 71
    5
 72
    1
  1
1.457
  7
standard
210
0
220
0
230
1
 50
90
 73
    2
 44
1
  0
ENDBLK
  5
7A
330
78
100
AcDbEntity
  8
0
100
AcDbBlockEnd
  0
BLOCK
  5
7C
330
7B
100
AcDbEntity
  8
0
100
AcDbBlockBegin
  2
*D2
 70
    1
 10
0
 20
0
  3
*D2
  1

  0
LINE
  5
EA
100
AcDbEntity
  8
dimension
  6
ByBlock
 62
    0
370
   -2
100
AcDbLine
 10
6.175
 20
2.53
 11
0.8500000000000005
 21
2.53
  0
LINE
  5
EB
100
AcDbEntity
  8
dimension
  6
ByBlock
 62
    0
370
   -2
100
AcDbLine
 10
6.175
 20
3.07
 11
0.8500000000000005
 21
3.07
  0
LINE
  5
EC
100
AcDbEntity
  8
dimension
  6
ByBlock
 62
    0
370
   -2
100
AcDbLine
 10
2.100000000000001
 20
1.53
 11
2.100000000000001
 21
4.07
  0
SOLID
  5
ED
100
AcDbEntity
  8
dimension
  6
ByBlock
 62
    0
370
   -2
100
AcDbTrace
 10
2.100000000000001
 20
2.53
 30
0
 11
2.183256931554569
 21
2.03
 31
0
 12
2.016743068445432
 22
2.03
 32
0
 13
2.016743068445432
 23
2.03
 33
0
  0
SOLID
  5
EE
100
AcDbEntity
  8
dimension
  6
ByBlock
 62
    0
370
   -2
100
AcDbTrace
 10
2.100000000000001
 20
3.07
 30
0
 11
2.016743068445432
 21
3.57
 31
0
 12
2.183256931554569
 22
3.57
 32
0
 13
2.183256931554569
 23
3.57
 33
0
  0
MTEXT
  5
EF
100
AcDbEntity
  8
dimension
  6
CONTINUOUS
 62
    0
370
   -2
100
AcDbMText
 10
1.8
 20
3.797777777777786
 30
0
 40
0.25
 41
0.8055555555555711
 71
    5
 72
    1
  1
0.540
  7
standard
210
0
220
0
230
1
 50
90
 73
    2
 44
1
  0
ENDBLK
  5
7D
330
7B
100
AcDbEntity
  8
0
100
AcDbBlockEnd
  0
BLOCK
  5
7F
330
7E
100
AcDbEntity
  8
0
100
AcDbBlockBegin
  2
*D1
 70
    1
 10
0
 20
0
  3
*D1
  1

  0
LINE
  5
F0
100
AcDbEntity
  8
dimension
  6
ByBlock
 62
    0
370
   -2
100
AcDbLine
 10
16.75
 20
3.302
 11
16.75
 21
4.95
  0
LINE
  5
F1
100
AcDbEntity
  8
dimension
  6
ByBlock
 62
    0
370
   -2
100
AcDbLine
 10
15.25
 20
3.302
 11
15.25
 21
4.95
  0
LINE
  5
F2
100
AcDbEntity
  8
dimension
  6
ByBlock
 62
    0
370
   -2
100
AcDbLine
 10
16.75
 20
3.7
 11
15.25
 21
3.7
  0
SOLID
  5
F3
100
AcDbEntity
  8
dimension
  6
ByBlock
 62
    0
370
   -2
100
AcDbTrace
 10
16.75
 20
3.7
 30
0
 11
16.25
 21
3.616743068445432
 31
0
 12
16.25
 22
3.783256931554568
 32
0
 13
16.25
 23
3.783256931554568
 33
0
  0
SOLID
  5
F4
100
AcDbEntity
  8
dimension
  6
ByBlock
 62
    0
370
   -2
100
AcDbTrace
 10
15.25
 20
3.7
 30
0
 11
15.75
 21
3.783256931554568
 31
0
 12
15.75
 22
3.616743068445432
 32
0
 13
15.75
 23
3.616743068445432
 33
0
  0
MTEXT
  5
F5
100
AcDbEntity
  8
dimension
  6
CONTINUOUS
 62
    0
370
   -2
100
AcDbMText
 10
16
 20
4
 30
0
 40
0.25
 41
0.7222222222222378
 71
    5
 72
    1
  1
1.500
  7
standard
210
0
220
0
230
1
 50
360
 73
    2
 44
1
  0
ENDBLK
  5
80
330
7E
100
AcDbEntity
  8
0
100
AcDbBlockEnd
  0
BLOCK
  5
82
330
81
100
AcDbEntity
  8
0
100
AcDbBlockBegin
  2
*D13
 70
    1
 10
0
 20
0
  3
*D13
  1

  0
SOLID
  5
F6
100
AcDbEntity
  8
dimension
  6
ByBlock
 62
    0
370
   -2
100
AcDbTrace
 10
6.092330525029377
 20
2.735280196985727
 30
0
 11
6.302086267185686
 21
2.273832209359453
 31
0
 12
6.141239335550332
 22
2.230760975443765
 32
0
 13
6.141239335550332
 23
2.230760975443765
 33
0
  0
LINE
  5
F7
100
AcDbEntity
  8
dimension
  6
ByBlock
 62
    0
370
   -2
100
AcDbLine
 10
6.075
 20
2.799999999999999
 11
6.552178618677852
 21
1.018005158464404
  0
MTEXT
  5
F8
100
AcDbEntity
  8
dimension
  6
CONTINUOUS
 62
    0
370
   -2
100
AcDbMText
 10
6.7
 20
1.4
 30
0
 40
0.25
 41
0.7777777777777932
 71
    5
 72
    1
  1
0.067
  7
standard
210
0
220
0
230
1
 50
284.9908361759657
 73
    2
 44
1
  0
ENDBLK
  5
83
330
81
100
AcDbEntity
  8
0
100
AcDbBlockEnd
  0
BLOCK
  5
85
330
84
100
AcDbEntity
  8
0
100
AcDbBlockBegin
  2
*D6
 70
    1
 10
0
 20
0
  3
*D6
  1

  0
LINE
  5
F9
100
AcDbEntity
  8
dimension
  6
ByBlock
 62
    0
370
   -2
100
AcDbLine
 10
6.718999999999999
 20
3.525
 11
6.718999999999999
 21
7.050000000000001
  0
LINE
  5
FA
100
AcDbEntity
  8
dimension
  6
ByBlock
 62
    0
370
   -2
100
AcDbLine
 10
7.298000000000002
 20
3.525
 11
7.298000000000002
 21
7.050000000000001
  0
LINE
  5
FB
100
AcDbEntity
  8
dimension
  6
ByBlock
 62
    0
370
   -2
100
AcDbLine
 10
5.718999999999999
 20
5.800000000000001
 11
8.298000000000002
 21
5.800000000000001
  0
SOLID
  5
FC
100
AcDbEntity
  8
dimension
  6
ByBlock
 62
    0
370
   -2
100
AcDbTrace
 10
6.718999999999999
 20
5.800000000000001
 30
0
 11
6.218999999999999
 21
5.716743068445433
 31
0
 12
6.218999999999999
 22
5.883256931554569
 32
0
 13
6.218999999999999
 23
5.883256931554569
 33
0
  0
SOLID
  5
FD
100
AcDbEntity
  8
dimension
  6
ByBlock
 62
    0
370
   -2
100
AcDbTrace
 10
7.298000000000002
 20
5.800000000000001
 30
0
 11
7.798000000000002
 21
5.883256931554569
 31
0
 12
7.798000000000002
 22
5.716743068445433
 32
0
 13
7.798000000000002
 23
5.716743068445433
 33
0
  0
MTEXT
  5
FE
100
AcDbEntity
  8
dimension
  6
CONTINUOUS
 62
    0
370
   -2
100
AcDbMText
 10
7.803388888888898
 20
6.1
 30
0
 40
0.25
 41
0.7777777777777934
 71
    5
 72
    1
  1
0.579
  7
standard
210
0
220
0
230
1
 50
0
 73
    2
 44
1
  0
ENDBLK
  5
86
330
84
100
AcDbEntity
  8
0
100
AcDbBlockEnd
  0
BLOCK
  5
88
330
87
100
AcDbEntity
  8
0
100
AcDbBlockBegin
  2
*D19
 70
    1
 10
0
 20
0
  3
*D19
  1

  0
LINE
  5
FF
100
AcDbEntity
  8
dimension
  6
ByBlock
 62
    0
370
   -2
100
AcDbLine
 10
21.395
 20
2.677
 11
24.55
 21
2.677
  0
LINE
  5
100
100
AcDbEntity
  8
dimension
  6
ByBlock
 62
    0
370
   -2
100
AcDbLine
 10
21.395
 20
2.8
 11
24.55
 21
2.8
  0
LINE
  5
101
100
AcDbEntity
  8
dimension
  6
ByBlock
 62
    0
370
   -2
100
AcDbLine
 10
23.3
 20
1.677
 11
23.3
 21
3.8
  0
SOLID
  5
102
100
AcDbEntity
  8
dimension
  6
ByBlock
 62
    0
370
   -2
100
AcDbTrace
 10
23.3
 20
2.677
 30
0
 11
23.38325693155457
 21
2.177
 31
0
 12
23.21674306844543
 22
2.177
 32
0
 13
23.21674306844543
 23
2.177
 33
0
  0
SOLID
  5
103
100
AcDbEntity
  8
dimension
  6
ByBlock
 62
    0
370
   -2
100
AcDbTrace
 10
23.3
 20
2.8
 30
0
 11
23.21674306844543
 21
3.3
 31
0
 12
23.38325693155457
 22
3.3
 32
0
 13
23.38325693155457
 23
3.3
 33
0
  0
MTEXT
  5
104
100
AcDbEntity
  8
dimension
  6
CONTINUOUS
 62
    0
370
   -2
100
AcDbMText
 10
23.1
 20
1.447611111111119
 30
0
 40
0.25
 41
0.7222222222222376
 71
    5
 72
    1
  1
0.123
  7
standard
210
0
220
0
230
1
 50
90
 73
    2
 44
1
  0
ENDBLK
  5
89
330
87
100
AcDbEntity
  8
0
100
AcDbBlockEnd
  0
BLOCK
  5
8B
330
8A
100
AcDbEntity
  8
0
100
AcDbBlockBegin
  2
*D5
 70
    1
 10
0
 20
0
  3
*D5
  1

  0
LINE
  5
105
100
AcDbEntity
  8
dimension
  6
ByBlock
 62
    0
370
   -2
100
AcDbLine
 10
4.5
 20
3.425
 11
4.5
 21
6.25
  0
LINE
  5
106
100
AcDbEntity
  8
dimension
  6
ByBlock
 62
    0
370
   -2
100
AcDbLine
 10
6.075
 20
3.425
 11
6.075
 21
6.25
  0
LINE
  5
107
100
AcDbEntity
  8
dimension
  6
ByBlock
 62
    0
370
   -2
100
AcDbLine
 10
4.5
 20
5
 11
6.075
 21
5
  0
SOLID
  5
108
100
AcDbEntity
  8
dimension
  6
ByBlock
 62
    0
370
   -2
100
AcDbTrace
 10
4.5
 20
5
 30
0
 11
5
 21
5.083256931554568
 31
0
 12
5
 22
4.916743068445432
 32
0
 13
5
 23
4.916743068445432
 33
0
  0
SOLID
  5
109
100
AcDbEntity
  8
dimension
  6
ByBlock
 62
    0
370
   -2
100
AcDbTrace
 10
6.075
 20
5
 30
0
 11
5.575
 21
4.916743068445432
 31
0
 12
5.575
 22
5.083256931554568
 32
0
 13
5.575
 23
5.083256931554568
 33
0
  0
MTEXT
  5
10A
100
AcDbEntity
  8
dimension
  6
CONTINUOUS
 62
    0
370
   -2
100
AcDbMText
 10
5.3
 20
5.3
 30
0
 40
0.25
 41
0.7222222222222533
 71
    5
 72
    1
  1
1.575
  7
standard
210
0
220
0
230
1
 50
0
 73
    2
 44
1
  0
ENDBLK
  5
8C
330
8A
100
AcDbEntity
  8
0
100
AcDbBlockEnd
  0
BLOCK
  5
8E
330
8D
100
AcDbEntity
  8
0
100
AcDbBlockBegin
  2
*D8
 70
    1
 10
0
 20
0
  3
*D8
  1

  0
LINE
  5
10B
100
AcDbEntity
  8
dimension
  6
ByBlock
 62
    0
370
   -2
100
AcDbLine
 10
5.885
 20
3.425
 11
5.885
 21
8.449999999999999
  0
LINE
  5
10C
100
AcDbEntity
  8
dimension
  6
ByBlock
 62
    0
370
   -2
100
AcDbLine
 10
6.718999999999999
 20
3.425
 11
6.718999999999999
 21
8.449999999999999
  0
LINE
  5
10D
100
AcDbEntity
  8
dimension
  6
ByBlock
 62
    0
370
   -2
100
AcDbLine
 10
4.885
 20
7.199999999999999
 11
7.718999999999999
 21
7.199999999999999
  0
SOLID
  5
10E
100
AcDbEntity
  8
dimension
  6
ByBlock
 62
    0
370
   -2
100
AcDbTrace
 10
5.885
 20
7.199999999999999
 30
0
 11
5.385
 21
7.116743068445431
 31
0
 12
5.385
 22
7.283256931554567
 32
0
 13
5.385
 23
7.283256931554567
 33
0
  0
SOLID
  5
10F
100
AcDbEntity
  8
dimension
  6
ByBlock
 62
    0
370
   -2
100
AcDbTrace
 10
6.718999999999999
 20
7.199999999999999
 30
0
 11
7.218999999999999
 21
7.283256931554567
 31
0
 12
7.218999999999999
 22
7.116743068445431
 32
0
 13
7.218999999999999
 23
7.116743068445431
 33
0
  0
MTEXT
  5
110
100
AcDbEntity
  8
dimension
  6
CONTINUOUS
 62
    0
370
   -2
100
AcDbMText
 10
7.300000000000001
 20
7.5
 30
0
 40
0.25
 41
0.805555555555571
 71
    5
 72
    1
  1
0.834
  7
standard
210
0
220
0
230
1
 50
0
 73
    2
 44
1
  0
ENDBLK
  5
8F
330
8D
100
AcDbEntity
  8
0
100
AcDbBlockEnd
  0
BLOCK
  5
91
330
90
100
AcDbEntity
  8
0
100
AcDbBlockBegin
  2
*D17
 70
    1
 10
0
 20
0
  3
*D17
  1

  0
LINE
  5
111
100
AcDbEntity
  8
dimension
  6
ByBlock
 62
    0
370
   -2
100
AcDbLine
 10
19.375
 20
2.052
 11
19.375
 21
0.55
  0
LINE
  5
112
100
AcDbEntity
  8
dimension
  6
ByBlock
 62
    0
370
   -2
100
AcDbLine
 10
20.77
 20
2.052
 11
20.77
 21
0.55
  0
LINE
  5
113
100
AcDbEntity
  8
dimension
  6
ByBlock
 62
    0
370
   -2
100
AcDbLine
 10
19.375
 20
1.8
 11
20.77
 21
1.8
  0
SOLID
  5
114
100
AcDbEntity
  8
dimension
  6
ByBlock
 62
    0
370
   -2
100
AcDbTrace
 10
19.375
 20
1.8
 30
0
 11
19.875
 21
1.883256931554568
 31
0
 12
19.875
 22
1.716743068445432
 32
0
 13
19.875
 23
1.716743068445432
 33
0
  0
SOLID
  5
115
100
AcDbEntity
  8
dimension
  6
ByBlock
 62
    0
370
   -2
100
AcDbTrace
 10
20.77
 20
1.8
 30
0
 11
20.27
 21
1.716743068445432
 31
0
 12
20.27
 22
1.883256931554568
 32
0
 13
20.27
 23
1.883256931554568
 33
0
  0
MTEXT
  5
116
100
AcDbEntity
  8
dimension
  6
CONTINUOUS
 62
    0
370
   -2
100
AcDbMText
 10
20
 20
1.5
 30
0
 40
0.25
 41
0.7222222222222533
 71
    5
 72
    1
  1
1.395
  7
standard
210
0
220
0
230
1
 50
0
 73
    2
 44
1
  0
ENDBLK
  5
92
330
90
100
AcDbEntity
  8
0
100
AcDbBlockEnd
  0
BLOCK
  5
94
330
93
100
AcDbEntity
  8
0
100
AcDbBlockBegin
  2
*D3
 70
    1
 10
0
 20
0
  3
*D3
  1

  0
LINE
  5
117
100
AcDbEntity
  8
dimension
  6
ByBlock
 62
    0
370
   -2
100
AcDbLine
 10
4.691
 20
3.625
 11
4.691
 21
4.95
  0
LINE
  5
118
100
AcDbEntity
  8
dimension
  6
ByBlock
 62
    0
370
   -2
100
AcDbLine
 10
5.885
 20
3.625
 11
5.885
 21
4.95
  0
LINE
  5
119
100
AcDbEntity
  8
dimension
  6
ByBlock
 62
    0
370
   -2
100
AcDbLine
 10
3.691
 20
3.7
 11
6.885
 21
3.7
  0
SOLID
  5
11A
100
AcDbEntity
  8
dimension
  6
ByBlock
 62
    0
370
   -2
100
AcDbTrace
 10
4.691
 20
3.7
 30
0
 11
4.191
 21
3.616743068445432
 31
0
 12
4.191
 22
3.783256931554568
 32
0
 13
4.191
 23
3.783256931554568
 33
0
  0
SOLID
  5
11B
100
AcDbEntity
  8
dimension
  6
ByBlock
 62
    0
370
   -2
100
AcDbTrace
 10
5.885
 20
3.7
 30
0
 11
6.385
 21
3.783256931554568
 31
0
 12
6.385
 22
3.616743068445432
 32
0
 13
6.385
 23
3.616743068445432
 33
0
  0
MTEXT
  5
11C
100
AcDbEntity
  8
dimension
  6
CONTINUOUS
 62
    0
370
   -2
100
AcDbMText
 10
5.2
 20
3.9
 30
0
 40
0.25
 41
0.6944444444444444
 71
    5
 72
    1
  1
1.194
  7
standard
210
0
220
0
230
1
 50
0
 73
    2
 44
1
  0
ENDBLK
  5
95
330
93
100
AcDbEntity
  8
0
100
AcDbBlockEnd
  0
BLOCK
  5
97
330
96
100
AcDbEntity
  8
0
100
AcDbBlockBegin
  2
*D10
 70
    1
 10
0
 20
0
  3
*D10
  1

  0
LINE
  5
11D
100
AcDbEntity
  8
dimension
  6
ByBlock
 62
    0
370
   -2
100
AcDbLine
 10
20.665
 20
2.625
 11
20.665
 21
5.65
  0
LINE
  5
11E
100
AcDbEntity
  8
dimension
  6
ByBlock
 62
    0
370
   -2
100
AcDbLine
 10
19.118
 20
2.625
 11
19.118
 21
5.65
  0
LINE
  5
11F
100
AcDbEntity
  8
dimension
  6
ByBlock
 62
    0
370
   -2
100
AcDbLine
 10
20.665
 20
4.4
 11
19.118
 21
4.4
  0
SOLID
  5
120
100
AcDbEntity
  8
dimension
  6
ByBlock
 62
    0
370
   -2
100
AcDbTrace
 10
20.665
 20
4.4
 30
0
 11
20.165
 21
4.316743068445432
 31
0
 12
20.165
 22
4.483256931554569
 32
0
 13
20.165
 23
4.483256931554569
 33
0
  0
SOLID
  5
121
100
AcDbEntity
  8
dimension
  6
ByBlock
 62
    0
370
   -2
100
AcDbTrace
 10
19.118
 20
4.4
 30
0
 11
19.618
 21
4.483256931554569
 31
0
 12
19.618
 22
4.316743068445432
 32
0
 13
19.618
 23
4.316743068445432
 33
0
  0
MTEXT
  5
122
100
AcDbEntity
  8
dimension
  6
CONTINUOUS
 62
    0
370
   -2
100
AcDbMText
 10
19.9
 20
4.7
 30
0
 40
0.25
 41
0.7500000000000155
 71
    5
 72
    1
  1
1.547
  7
standard
210
0
220
0
230
1
 50
360
 73
    2
 44
1
  0
ENDBLK
  5
98
330
96
100
AcDbEntity
  8
0
100
AcDbBlockEnd
  0
BLOCK
  5
9A
330
99
100
AcDbEntity
  8
0
100
AcDbBlockBegin
  2
*D27
 70
    1
 10
0
 20
0
  3
*D27
  1

  0
SOLID
  5
123
100
AcDbEntity
  8
geometry
  6
ByBlock
 62
    0
370
   -2
100
AcDbTrace
 10
4.083026934090924
 20
3.412569844236958
 30
0
 11
3.872972581728516
 21
3.873881979028025
 31
0
 12
4.033791603506653
 22
3.917057305799819
 32
0
 13
4.033791603506653
 23
3.917057305799819
 33
0
  0
LINE
  5
124
100
AcDbEntity
  8
geometry
  6
ByBlock
 62
    0
370
   -2
100
AcDbLine
 10
4.106
 20
3.327
 11
3.622067497741271
 21
5.129546904421719
  0
MTEXT
  5
125
100
AcDbEntity
  8
geometry
  6
CONTINUOUS
 62
    0
370
   -2
100
AcDbMText
 10
3.9
 20
4.800000000000001
 30
0
 40
0.25
 41
0.7777777777777777
 71
    5
 72
    1
  1
0.089
  7
standard
210
0
220
0
230
1
 50
285.0279186278752
 73
    2
 44
1
  0
ENDBLK
  5
9B
330
99
100
AcDbEntity
  8
0
100
AcDbBlockEnd
  0
BLOCK
  5
9D
330
9C
100
AcDbEntity
  8
0
100
AcDbBlockBegin
  2
*D28
 70
    1
 10
0
 20
0
  3
*D28
  1

  0
SOLID
  5
126
100
AcDbEntity
  8
geometry
  6
ByBlock
 62
    0
370
   -2
100
AcDbTrace
 10
5.674514402575283
 20
2.074020731202655
 30
0
 11
5.885225991768015
 21
1.613008428946245
 31
0
 12
5.724468665673309
 22
1.569603950900676
 32
0
 13
5.724468665673309
 23
1.569603950900676
 33
0
  0
LINE
  5
127
100
AcDbEntity
  8
geometry
  6
ByBlock
 62
    0
370
   -2
100
AcDbLine
 10
5.654
 20
2.15
 11
6.137920362203301
 21
0.3577023622099642
  0
MTEXT
  5
128
100
AcDbEntity
  8
geometry
  6
CONTINUOUS
 62
    0
370
   -2
100
AcDbMText
 10
6
 20
1
 30
0
 40
0.25
 41
0.7777777777777777
 71
    5
 72
    1
  1
0.079
  7
standard
210
0
220
0
230
1
 50
285.1095751223402
 73
    2
 44
1
  0
ENDBLK
  5
9E
330
9C
100
AcDbEntity
  8
0
100
AcDbBlockEnd
  0
BLOCK
  5
A0
330
9F
100
AcDbEntity
  8
0
100
AcDbBlockBegin
  2
*D18
 70
    1
 10
0
 20
0
  3
*D18
  1

  0
LINE
  5
129
100
AcDbEntity
  8
dimension
  6
ByBlock
 62
    0
370
   -2
100
AcDbLine
 10
21.395
 20
2
 11
23.75
 21
2
  0
LINE
  5
12A
100
AcDbEntity
  8
dimension
  6
ByBlock
 62
    0
370
   -2
100
AcDbLine
 10
21.395
 20
2.677
 11
23.75
 21
2.677
  0
LINE
  5
12B
100
AcDbEntity
  8
dimension
  6
ByBlock
 62
    0
370
   -2
100
AcDbLine
 10
22.5
 20
1
 11
22.5
 21
3.677
  0
SOLID
  5
12C
100
AcDbEntity
  8
dimension
  6
ByBlock
 62
    0
370
   -2
100
AcDbTrace
 10
22.5
 20
2
 30
0
 11
22.58325693155457
 21
1.5
 31
0
 12
22.41674306844543
 22
1.5
 32
0
 13
22.41674306844543
 23
1.5
 33
0
  0
SOLID
  5
12D
100
AcDbEntity
  8
dimension
  6
ByBlock
 62
    0
370
   -2
100
AcDbTrace
 10
22.5
 20
2.677
 30
0
 11
22.41674306844543
 21
3.177
 31
0
 12
22.58325693155457
 22
3.177
 32
0
 13
22.58325693155457
 23
3.177
 33
0
  0
MTEXT
  5
12E
100
AcDbEntity
  8
dimension
  6
CONTINUOUS
 62
    0
370
   -2
100
AcDbMText
 10
22.2
 20
1.452388888888897
 30
0
 40
0.25
 41
0.7777777777777933
 71
    5
 72
    1
  1
0.677
  7
standard
210
0
220
0
230
1
 50
90
 73
    2
 44
1
  0
ENDBLK
  5
A1
330
9F
100
AcDbEntity
  8
0
100
AcDbBlockEnd
  0
BLOCK
  5
A3
330
A2
100
AcDbEntity
  8
0
100
AcDbBlockBegin
  2
*D12
 70
    1
 10
0
 20
0
  3
*D12
  1

  0
SOLID
  5
12F
100
AcDbEntity
  8
dimension
  6
ByBlock
 62
    0
370
   -2
100
AcDbTrace
 10
4.13006860629176
 20
2.044731821931202
 30
0
 11
4.346021992421973
 21
1.586151565410299
 31
0
 12
4.185769918714149
 22
1.540917292122557
 32
0
 13
4.185769918714149
 23
1.540917292122557
 33
0
  0
LINE
  5
130
100
AcDbEntity
  8
dimension
  6
ByBlock
 62
    0
370
   -2
100
AcDbLine
 10
4.106
 20
2.13
 11
4.613010292607496
 21
0.3338077573453397
  0
MTEXT
  5
131
100
AcDbEntity
  8
dimension
  6
CONTINUOUS
 62
    0
370
   -2
100
AcDbMText
 10
4.7
 20
1
 30
0
 40
0.25
 41
0.7777777777777777
 71
    5
 72
    1
  1
0.089
  7
standard
210
0
220
0
230
1
 50
285.7627548072479
 73
    2
 44
1
  0
ENDBLK
  5
A4
330
A2
100
AcDbEntity
  8
0
100
AcDbBlockEnd
  0
ENDSEC
  0
SECTION
  2
ENTITIES
  0
LWPOLYLINE
  5
132
100
AcDbEntity
  8
geometry
  6
ByLayer
 62
  256
370
   -1
100
AcDbPolyline
 90
    4
 70
    1
 43
0
 10
4
 20
2
 10
20.77
 20
2
 10
20.77
 20
3.457000000000001
 10
4
 20
3.457000000000001
  0
LINE
  5
133
100
AcDbEntity
  8
centerlines
  6
ByLayer
 62
  256
370
   -1
100
AcDbLine
 10
4
 20
2.677
 11
20.77
 21
2.677
  0
LINE
  5
134
100
AcDbEntity
  8
centerlines
  6
ByLayer
 62
  256
370
   -1
100
AcDbLine
 10
4
 20
2.8
 11
20.77
 21
2.8
  0
CIRCLE
  5
135
100
AcDbEntity
  8
geometry
  6
ByLayer
 62
  256
370
   -1
100
AcDbCircle
 10
4.5
 20
2.799999999999999
 40
0.06689999999999996
  0
CIRCLE
  5
136
100
AcDbEntity
  8
geometry
  6
ByLayer
 62
  256
370
   -1
100
AcDbCircle
 10
6.075
 20
2.799999999999999
 40
0.06699999999999973
  0
CIRCLE
  5
137
100
AcDbEntity
  8
geometry
  6
ByLayer
 62
  256
370
   -1
100
AcDbCircle
 10
8.499999999999998
 20
2.677
 40
0.2812999999999999
  0
CIRCLE
  5
138
100
AcDbEntity
  8
geometry
  6
ByLayer
 62
  256
370
   -1
100
AcDbCircle
 10
9.375
 20
2.677
 40
0.2812999999999999
  0
CIRCLE
  5
139
100
AcDbEntity
  8
geometry
  6
ByLayer
 62
  256
370
   -1
100
AcDbCircle
 10
10.245
 20
2.677
 40
0.2812999999999999
  0
CIRCLE
  5
13A
100
AcDbEntity
  8
geometry
  6
ByLayer
 62
  256
370
   -1
100
AcDbCircle
 10
11.125
 20
2.677
 40
0.2812999999999999
  0
CIRCLE
  5
13B
100
AcDbEntity
  8
geometry
  6
ByLayer
 62
  256
370
   -1
100
AcDbCircle
 10
14.375
 20
2.677
 40
0.2812999999999999
  0
CIRCLE
  5
13C
100
AcDbEntity
  8
geometry
  6
ByLayer
 62
  256
370
   -1
100
AcDbCircle
 10
17.625
 20
2.677
 40
0.2812999999999999
  0
CIRCLE
  5
13D
100
AcDbEntity
  8
geometry
  6
ByLayer
 62
  256
370
   -1
100
AcDbCircle
 10
18.5
 20
2.677
 40
0.2812999999999999
  0
CIRCLE
  5
13E
100
AcDbEntity
  8
geometry
  6
ByLayer
 62
  256
370
   -1
100
AcDbCircle
 10
19.375
 20
2.677
 40
0.2812999999999999
  0
ARC
  5
13F
100
AcDbEntity
  8
geometry
  6
ByLayer
 62
  256
370
   -1
100
AcDbCircle
 10
5.73
 20
2.516
 40
0.155
100
AcDbArc
 50
270.0000000000001
 51
0
  0
ARC
  5
140
100
AcDbEntity
  8
geometry
  6
ByLayer
 62
  256
370
   -1
100
AcDbCircle
 10
5.73
 20
3.084
 40
0.1549999999999998
100
AcDbArc
 50
0
 51
90.00000000000009
  0
LINE
  5
141
100
AcDbEntity
  8
geometry
  6
ByLayer
 62
  256
370
   -1
100
AcDbLine
 10
5.885
 20
3.084
 11
5.885
 21
2.516
  0
LINE
  5
142
100
AcDbEntity
  8
geometry
  6
ByLayer
 62
  256
370
   -1
100
AcDbLine
 10
4.846
 20
3.239
 11
5.73
 21
3.239
  0
ARC
  5
143
100
AcDbEntity
  8
geometry
  6
ByLayer
 62
  256
370
   -1
100
AcDbCircle
 10
4.846
 20
3.084
 40
0.155
100
AcDbArc
 50
90
 51
180
  0
LINE
  5
144
100
AcDbEntity
  8
geometry
  6
ByLayer
 62
  256
370
   -1
100
AcDbLine
 10
5.73
 20
2.361
 11
4.846
 21
2.361
  0
LINE
  5
145
100
AcDbEntity
  8
geometry
  6
ByLayer
 62
  256
370
   -1
100
AcDbLine
 10
4.691
 20
2.516
 11
4.691
 21
3.084
  0
ARC
  5
146
100
AcDbEntity
  8
geometry
  6
ByLayer
 62
  256
370
   -1
100
AcDbCircle
 10
4.846
 20
2.516
 40
0.155
100
AcDbArc
 50
180
 51
270
  0
ARC
  5
147
100
AcDbEntity
  8
geometry
  6
ByLayer
 62
  256
370
   -1
100
AcDbCircle
 10
6.762
 20
2.573
 40
0.04300000000000004
100
AcDbArc
 50
180
 51
270
  0
LINE
  5
148
100
AcDbEntity
  8
geometry
  6
ByLayer
 62
  256
370
   -1
100
AcDbLine
 10
6.762
 20
2.53
 11
7.254999999999999
 21
2.53
  0
ARC
  5
149
100
AcDbEntity
  8
geometry
  6
ByLayer
 62
  256
370
   -1
100
AcDbCircle
 10
7.254999999999999
 20
2.573
 40
0.04300000000000015
100
AcDbArc
 50
270
 51
0
  0
LINE
  5
14A
100
AcDbEntity
  8
geometry
  6
ByLayer
 62
  256
370
   -1
100
AcDbLine
 10
7.298
 20
2.573
 11
7.298
 21
3.026
  0
ARC
  5
14B
100
AcDbEntity
  8
geometry
  6
ByLayer
 62
  256
370
   -1
100
AcDbCircle
 10
7.254999999999999
 20
3.026
 40
0.04299999999999993
100
AcDbArc
 50
0
 51
90
  0
LINE
  5
14C
100
AcDbEntity
  8
geometry
  6
ByLayer
 62
  256
370
   -1
100
AcDbLine
 10
7.254999999999999
 20
3.069
 11
6.762
 21
3.069
  0
LINE
  5
14D
100
AcDbEntity
  8
geometry
  6
ByLayer
 62
  256
370
   -1
100
AcDbLine
 10
6.718999999999999
 20
3.026
 11
6.718999999999999
 21
2.573
  0
ARC
  5
14E
100
AcDbEntity
  8
geometry
  6
ByLayer
 62
  256
370
   -1
100
AcDbCircle
 10
6.762
 20
3.026
 40
0.04299999999999993
100
AcDbArc
 50
90
 51
180
  0
CIRCLE
  5
14F
100
AcDbEntity
  8
geometry
  6
ByLayer
 62
  256
370
   -1
100
AcDbCircle
 10
5.654
 20
2.15
 40
0.07869999999999977
  0
CIRCLE
  5
150
100
AcDbEntity
  8
geometry
  6
ByLayer
 62
  256
370
   -1
100
AcDbCircle
 10
20.665
 20
3.327
 40
0.08859999999999957
  0
CIRCLE
  5
151
100
AcDbEntity
  8
geometry
  6
ByLayer
 62
  256
370
   -1
100
AcDbCircle
 10
20.665
 20
2.130000000000001
 40
0.08859999999999957
  0
CIRCLE
  5
152
100
AcDbEntity
  8
geometry
  6
ByLayer
 62
  256
370
   -1
100
AcDbCircle
 10
19.118
 20
2.15
 40
0.07869999999999977
  0
CIRCLE
  5
153
100
AcDbEntity
  8
geometry
  6
ByLayer
 62
  256
370
   -1
100
AcDbCircle
 10
15.25
 20
2.677
 40
0.2812999999999999
  0
CIRCLE
  5
154
100
AcDbEntity
  8
geometry
  6
ByLayer
 62
  256
370
   -1
100
AcDbCircle
 10
16.75
 20
2.677
 40
0.2812999999999999
  0
CIRCLE
  5
155
100
AcDbEntity
  8
geometry
  6
ByLayer
 62
  256
370
   -1
100
AcDbCircle
 10
12.386
 20
2.15
 40
0.07869999999999977
  0
CIRCLE
  5
156
100
AcDbEntity
  8
geometry
  6
ByLayer
 62
  256
370
   -1
100
AcDbCircle
 10
12.625
 20
2.677
 40
0.2812999999999999
  0
CIRCLE
  5
157
100
AcDbEntity
  8
geometry
  6
ByLayer
 62
  256
370
   -1
100
AcDbCircle
 10
13.5
 20
2.677
 40
0.2812999999999999
  0
CIRCLE
  5
158
100
AcDbEntity
  8
geometry
  6
ByLayer
 62
  256
370
   -1
100
AcDbCircle
 10
4.106
 20
3.327
 40
0.08859999999999998
  0
CIRCLE
  5
159
100
AcDbEntity
  8
geometry
  6
ByLayer
 62
  256
370
   -1
100
AcDbCircle
 10
4.106
 20
2.13
 40
0.08859999999999998
  0
CIRCLE
  5
15A
100
AcDbEntity
  8
geometry
  6
ByLayer
 62
  256
370
   -1
100
AcDbCircle
 10
6.575
 20
2.8
 40
0.06300000000000017
  0
CIRCLE
  5
15B
100
AcDbEntity
  8
geometry
  6
ByLayer
 62
  256
370
   -1
100
AcDbCircle
 10
7.440000000000001
 20
2.8
 40
0.06300000000000017
  0
DIMENSION
  5
15C
100
AcDbEntity
  8
dimension
  6
ByLayer
 62
  256
370
   -1
100
AcDbDimension
  2
*D1
 10
15.25
 20
3.7
 30
0
 11
16
 21
4
 31
0
 70
   33
 71
    5
  3
Standard
 53
0
210
0
220
0
230
1
100
AcDbAlignedDimension
 13
16.75
 23
2.677
 33
0
 14
15.25
 24
2.677
 34
0
  0
DIMENSION
  5
15D
100
AcDbEntity
  8
dimension
  6
ByLayer
 62
  256
370
   -1
100
AcDbDimension
  2
*D2
 10
2.100000000000001
 20
3.07
 30
0
 11
1.8
 21
2.5
 31
0
 70
   33
 71
    5
  3
Standard
 53
0
210
0
220
0
230
1
100
AcDbAlignedDimension
 13
6.8
 23
2.53
 33
0
 14
6.8
 24
3.07
 34
0
  0
DIMENSION
  5
15E
100
AcDbEntity
  8
dimension
  6
ByLayer
 62
  256
370
   -1
100
AcDbDimension
  2
*D3
 10
5.885
 20
3.7
 30
0
 11
5.2
 21
3.9
 31
0
 70
   33
 71
    5
  3
Standard
 53
0
210
0
220
0
230
1
100
AcDbAlignedDimension
 13
4.691
 23
3
 33
0
 14
5.885
 24
3
 34
0
  0
DIMENSION
  5
15F
100
AcDbEntity
  8
dimension
  6
ByLayer
 62
  256
370
   -1
100
AcDbDimension
  2
*D4
 10
7.440000000000001
 20
4.600000000000001
 30
0
 11
7
 21
4.8
 31
0
 70
   33
 71
    5
  3
Standard
 53
0
210
0
220
0
230
1
100
AcDbAlignedDimension
 13
6.574999999999999
 23
2.8
 33
0
 14
7.440000000000001
 24
2.8
 34
0
  0
DIMENSION
  5
160
100
AcDbEntity
  8
dimension
  6
ByLayer
 62
  256
370
   -1
100
AcDbDimension
  2
*D5
 10
6.075
 20
5
 30
0
 11
5.3
 21
5.3
 31
0
 70
   33
 71
    5
  3
Standard
 53
0
210
0
220
0
230
1
100
AcDbAlignedDimension
 13
4.5
 23
2.8
 33
0
 14
6.075
 24
2.8
 34
0
  0
DIMENSION
  5
161
100
AcDbEntity
  8
dimension
  6
ByLayer
 62
  256
370
   -1
100
AcDbDimension
  2
*D6
 10
7.298000000000002
 20
5.800000000000001
 30
0
 11
6.5
 21
6.1
 31
0
 70
   33
 71
    5
  3
Standard
 53
0
210
0
220
0
230
1
100
AcDbAlignedDimension
 13
6.718999999999999
 23
2.9
 33
0
 14
7.298000000000002
 24
2.9
 34
0
  0
DIMENSION
  5
162
100
AcDbEntity
  8
dimension
  6
ByLayer
 62
  256
370
   -1
100
AcDbDimension
  2
*D7
 10
4.691
 20
7
 30
0
 11
3.8
 21
7.5
 31
0
 70
   33
 71
    5
  3
Standard
 53
0
210
0
220
0
230
1
100
AcDbAlignedDimension
 13
4
 23
2.8
 33
0
 14
4.691
 24
2.8
 34
0
  0
DIMENSION
  5
163
100
AcDbEntity
  8
dimension
  6
ByLayer
 62
  256
370
   -1
100
AcDbDimension
  2
*D8
 10
6.718999999999999
 20
7.199999999999999
 30
0
 11
7.300000000000001
 21
7.5
 31
0
 70
   33
 71
    5
  3
Standard
 53
0
210
0
220
0
230
1
100
AcDbAlignedDimension
 13
5.885
 23
2.8
 33
0
 14
6.718999999999999
 24
2.8
 34
0
  0
DIMENSION
  5
164
100
AcDbEntity
  8
dimension
  6
ByLayer
 62
  256
370
   -1
100
AcDbDimension
  2
*D9
 10
12.625
 20
3.700000000000001
 30
0
 11
13.1
 21
3.9
 31
0
 70
   33
 71
    5
  3
Standard
 53
0
210
0
220
0
230
1
100
AcDbAlignedDimension
 13
13.5
 23
2.677
 33
0
 14
12.625
 24
2.677
 34
0
  0
DIMENSION
  5
165
100
AcDbEntity
  8
dimension
  6
ByLayer
 62
  256
370
   -1
100
AcDbDimension
  2
*D10
 10
19.118
 20
4.4
 30
0
 11
19.9
 21
4.7
 31
0
 70
   33
 71
    5
  3
Standard
 53
0
210
0
220
0
230
1
100
AcDbAlignedDimension
 13
20.665
 23
2
 33
0
 14
19.118
 24
2
 34
0
  0
DIMENSION
  5
166
100
AcDbEntity
  8
dimension
  6
ByLayer
 62
  256
370
   -1
100
AcDbDimension
  2
*D11
 10
12.386
 20
5.700000000000001
 30
0
 11
16.5
 21
5.9
 31
0
 70
   33
 71
    5
  3
Standard
 53
0
210
0
220
0
230
1
100
AcDbAlignedDimension
 13
20.77
 23
2
 33
0
 14
12.386
 24
2
 34
0
  0
DIMENSION
  5
167
100
AcDbEntity
  8
dimension
  6
ByLayer
 62
  256
370
   -1
100
AcDbDimension
  2
*D12
 10
4.106
 20
2.13
 30
0
 11
4.7
 21
1
 31
0
 70
   36
 71
    5
  3
Standard
 53
0
210
0
220
0
230
1
100
AcDbRadialDimension
 15
4.13006860629176
 25
2.044731821931202
 35
0
 40
0
  0
DIMENSION
  5
168
100
AcDbEntity
  8
dimension
  6
ByLayer
 62
  256
370
   -1
100
AcDbDimension
  2
*D13
 10
6.075
 20
2.799999999999999
 30
0
 11
6.7
 21
1.4
 31
0
 70
   36
 71
    5
  3
Standard
 53
0
210
0
220
0
230
1
100
AcDbRadialDimension
 15
6.092330525029377
 25
2.735280196985727
 35
0
 40
0
  0
DIMENSION
  5
169
100
AcDbEntity
  8
dimension
  6
ByLayer
 62
  256
370
   -1
100
AcDbDimension
  2
*D14
 10
7.440000000000001
 20
2.8
 30
0
 11
8
 21
1.5
 31
0
 70
   36
 71
    5
  3
Standard
 53
0
210
0
220
0
230
1
100
AcDbRadialDimension
 15
7.456408763961235
 25
2.739174409454042
 35
0
 40
0
  0
DIMENSION
  5
16A
100
AcDbEntity
  8
dimension
  6
ByLayer
 62
  256
370
   -1
100
AcDbDimension
  2
*D15
 10
12.386
 20
2.15
 30
0
 11
13
 21
0.8999999999999999
 31
0
 70
   36
 71
    5
  3
Standard
 53
0
210
0
220
0
230
1
100
AcDbRadialDimension
 15
12.40761584939015
 25
2.074326721657229
 35
0
 40
0
  0
DIMENSION
  5
16B
100
AcDbEntity
  8
dimension
  6
ByLayer
 62
  256
370
   -1
100
AcDbDimension
  2
*D16
 10
15.25
 20
2.677
 30
0
 11
15.9
 21
1.2
 31
0
 70
   36
 71
    5
  3
Standard
 53
0
210
0
220
0
230
1
100
AcDbRadialDimension
 15
15.32364098639194
 25
2.405510230168387
 35
0
 40
0
  0
DIMENSION
  5
16C
100
AcDbEntity
  8
dimension
  6
ByLayer
 62
  256
370
   -1
100
AcDbDimension
  2
*D17
 10
20.77
 20
1.8
 30
0
 11
20
 21
1.5
 31
0
 70
   33
 71
    5
  3
Standard
 53
0
210
0
220
0
230
1
100
AcDbAlignedDimension
 13
19.375
 23
2.677
 33
0
 14
20.77
 24
2.677
 34
0
  0
DIMENSION
  5
16D
100
AcDbEntity
  8
dimension
  6
ByLayer
 62
  256
370
   -1
100
AcDbDimension
  2
*D18
 10
22.5
 20
2.677
 30
0
 11
22.2
 21
0.1000000000000001
 31
0
 70
   33
 71
    5
  3
Standard
 53
0
210
0
220
0
230
1
100
AcDbAlignedDimension
 13
20.77
 23
2
 33
0
 14
20.77
 24
2.677
 34
0
  0
DIMENSION
  5
16E
100
AcDbEntity
  8
dimension
  6
ByLayer
 62
  256
370
   -1
100
AcDbDimension
  2
*D19
 10
23.3
 20
2.8
 30
0
 11
23.1
 21
0.3999999999999999
 31
0
 70
   33
 71
    5
  3
Standard
 53
0
210
0
220
0
230
1
100
AcDbAlignedDimension
 13
20.77
 23
2.677
 33
0
 14
20.77
 24
2.8
 34
0
  0
DIMENSION
  5
16F
100
AcDbEntity
  8
dimension
  6
ByLayer
 62
  256
370
   -1
100
AcDbDimension
  2
*D20
 10
21.6
 20
3.457
 30
0
 11
21.2
 21
2.5
 31
0
 70
   33
 71
    5
  3
Standard
 53
0
210
0
220
0
230
1
100
AcDbAlignedDimension
 13
20.4
 23
2
 33
0
 14
20.4
 24
3.457
 34
0
  0
DIMENSION
  5
170
100
AcDbEntity
  8
dimension
  6
ByLayer
 62
  256
370
   -1
100
AcDbDimension
  2
*D21
 10
20.665
 20
3.600000000000001
 30
0
 11
20.2
 21
3.9
 31
0
 70
   33
 71
    5
  3
Standard
 53
0
210
0
220
0
230
1
100
AcDbAlignedDimension
 13
20.77
 23
3.327
 33
0
 14
20.665
 24
3.327
 34
0
  0
DIMENSION
  5
171
100
AcDbEntity
  8
dimension
  6
ByLayer
 62
  256
370
   -1
100
AcDbDimension
  2
*D22
 10
20.77
 20
9
 30
0
 11
12.4
 21
9.199999999999999
 31
0
 70
   33
 71
    5
  3
Standard
 53
0
210
0
220
0
230
1
100
AcDbAlignedDimension
 13
4
 23
3.4
 33
0
 14
20.77
 24
3.4
 34
0
  0
DIMENSION
  5
172
100
AcDbEntity
  8
dimension
  6
ByLayer
 62
  256
370
   -1
100
AcDbDimension
  2
*D23
 10
3.8
 20
3.24
 30
0
 11
3.600000000000001
 21
2.8
 31
0
 70
   33
 71
    5
  3
Standard
 53
0
210
0
220
0
230
1
100
AcDbAlignedDimension
 13
4.9
 23
2.36
 33
0
 14
4.9
 24
3.24
 34
0
  0
DIMENSION
  5
173
100
AcDbEntity
  8
dimension
  6
ByLayer
 62
  256
370
   -1
100
AcDbDimension
  2
*D24
 10
3.4
 20
3.327000000000001
 30
0
 11
3.2
 21
2.8
 31
0
 70
   33
 71
    5
  3
Standard
 53
0
210
0
220
0
230
1
100
AcDbAlignedDimension
 13
4.105999999999999
 23
2.13
 33
0
 14
4.106
 24
3.327
 34
0
  0
DIMENSION
  5
174
100
AcDbEntity
  8
geometry
  6
ByLayer
 62
  256
370
   -1
100
AcDbDimension
  2
*D25
 10
5.73
 20
2.516
 30
0
 11
6.25
 21
1.24
 31
0
 70
   36
 71
    5
 72
    0
  3
Standard
 53
0
210
0
220
0
230
1
100
AcDbRadialDimension
 15
5.770586918338569
 25
2.366408215266418
 35
0
 40
0
  0
DIMENSION
  5
175
100
AcDbEntity
  8
geometry
  6
ByLayer
 62
  256
370
   -1
100
AcDbDimension
  2
*D26
 10
7.254999999999999
 20
2.573
 30
0
 11
7.73
 21
1.36
 31
0
 70
   36
 71
    5
 72
    0
  3
Standard
 53
0
210
0
220
0
230
1
100
AcDbRadialDimension
 15
7.266286478659777
 25
2.531507646494054
 35
0
 40
0
  0
MTEXT
  5
176
100
AcDbEntity
  8
geometry
  6
ByLayer
 62
  256
370
   -1
100
AcDbMText
 10
15
 20
13
 30
0
 40
0.3
 41
8.200000244971786
 71
    1
 72
    1
  1
Notes\P Material: 24-Gauge Steel max thickness\P Debur all edges\P Pant both sides flat black\P Dimensions in inches
  7
STANDARD
210
0
220
0
230
1
 50
0
 73
    2
 44
1
  0
DIMENSION
  5
177
100
AcDbEntity
  8
geometry
  6
ByLayer
 62
  256
370
   -1
100
AcDbDimension
  2
*D27
 10
4.106
 20
3.327
 30
0
 11
3.9
 21
4.800000000000001
 31
0
 70
   36
 71
    5
  3
Standard
 53
0
210
0
220
0
230
1
100
AcDbRadialDimension
 15
4.083026934090924
 25
3.412569844236958
 35
0
 40
0
  0
DIMENSION
  5
178
100
AcDbEntity
  8
geometry
  6
ByLayer
 62
  256
370
   -1
100
AcDbDimension
  2
*D28
 10
5.654
 20
2.15
 30
0
 11
6
 21
1
 31
0
 70
   36
 71
    5
  3
Standard
 53
0
210
0
220
0
230
1
100
AcDbRadialDimension
 15
5.674514402575283
 25
2.074020731202655
 35
0
 40
0
  0
ENDSEC
  0
SECTION
  2
OBJECTS
  0
DICTIONARY
  5
C
330
0
100
AcDbDictionary
281
    1
  3
ACAD_GROUP
350
D
  0
DICTIONARY
  5
D
330
C
100
AcDbDictionary
281
    1
  0
ENDSEC
  0
EOF
